<?xml version="1.0" encoding="utf-8"?>
<svg version="1.1" id="Layer_1" xmlns="http://www.w3.org/2000/svg" xmlns:xlink="http://www.w3.org/1999/xlink" x="0px" y="0px"
	 viewBox="0 0 100 100" style="enable-background:new 0 0 100 100;" xml:space="preserve">
<style type="text/css">
	.st0{fill-rule:evenodd;clip-rule:evenodd;fill:url(#SVGID_1_);}
	.st1{fill-rule:evenodd;clip-rule:evenodd;fill:url(#SVGID_2_);}
	.st2{fill-rule:evenodd;clip-rule:evenodd;fill:url(#SVGID_3_);}
	.st3{fill-rule:evenodd;clip-rule:evenodd;fill:url(#SVGID_4_);}
	.st4{fill-rule:evenodd;clip-rule:evenodd;fill:url(#SVGID_5_);}
	.st5{fill-rule:evenodd;clip-rule:evenodd;fill:url(#SVGID_6_);}
	.st6{fill-rule:evenodd;clip-rule:evenodd;fill:url(#SVGID_7_);}
	.st7{fill-rule:evenodd;clip-rule:evenodd;fill:url(#SVGID_8_);}
	.st8{fill-rule:evenodd;clip-rule:evenodd;fill:#4E506A;}
	.st9{fill-rule:evenodd;clip-rule:evenodd;fill:url(#SVGID_9_);}
	.st10{fill-rule:evenodd;clip-rule:evenodd;fill:url(#SVGID_10_);}
	.st11{fill-rule:evenodd;clip-rule:evenodd;fill:url(#SVGID_11_);}
	.st12{fill-rule:evenodd;clip-rule:evenodd;fill:url(#SVGID_12_);}
	.st13{fill-rule:evenodd;clip-rule:evenodd;fill:url(#SVGID_13_);}
	.st14{fill-rule:evenodd;clip-rule:evenodd;fill:url(#SVGID_14_);}
	.st15{fill-rule:evenodd;clip-rule:evenodd;fill:url(#SVGID_15_);}
	.st16{fill-rule:evenodd;clip-rule:evenodd;fill:url(#SVGID_16_);}
	.st17{fill-rule:evenodd;clip-rule:evenodd;fill:url(#SVGID_17_);}
	.st18{fill-rule:evenodd;clip-rule:evenodd;fill:url(#SVGID_18_);}
	.st19{fill-rule:evenodd;clip-rule:evenodd;fill:#FFFFFF;filter:url(#Adobe_OpacityMaskFilter);}
	.st20{mask:url(#u_1_);fill-rule:evenodd;clip-rule:evenodd;fill:url(#SVGID_19_);}
	.st21{fill:url(#SVGID_20_);}
</style>
<g>
	
		<linearGradient id="SVGID_1_" gradientUnits="userSpaceOnUse" x1="-851.8645" y1="606.6906" x2="-851.8645" y2="601.2156" gradientTransform="matrix(16 0 0 16 13680 -9612)">
		<stop  offset="0" style="stop-color:#F28A2D"/>
		<stop  offset="1" style="stop-color:#FDE86F"/>
	</linearGradient>
	<path class="st0" d="M100.2,50c0,27.5-22.5,50-50,50s-50-22.5-50-50s22.5-50,50-50S100.2,22.5,100.2,50z"/>
	
		<radialGradient id="SVGID_2_" cx="-851.8645" cy="603.875" r="3.125" gradientTransform="matrix(16 0 0 16 13680 -9612)" gradientUnits="userSpaceOnUse">
		<stop  offset="0" style="stop-color:#F28A2D;stop-opacity:0"/>
		<stop  offset="1" style="stop-color:#F08423;stop-opacity:0.34"/>
	</radialGradient>
	<path class="st1" d="M100.2,50c0,27.5-22.5,50-50,50s-50-22.5-50-50s22.5-50,50-50S100.2,22.5,100.2,50z"/>
	
		<radialGradient id="SVGID_3_" cx="-845.6552" cy="579.5634" r="0.6313" gradientTransform="matrix(14.5998 6.5456 -5.063 11.2928 15291.7109 -957.5684)" gradientUnits="userSpaceOnUse">
		<stop  offset="0" style="stop-color:#F28A2D;stop-opacity:0.5"/>
		<stop  offset="1" style="stop-color:#F28A2D;stop-opacity:0"/>
	</radialGradient>
	<path class="st2" d="M100.2,50c0,27.5-22.5,50-50,50s-50-22.5-50-50s22.5-50,50-50S100.2,22.5,100.2,50z"/>
	
		<radialGradient id="SVGID_4_" cx="-884.8503" cy="749.0835" r="1.7687" gradientTransform="matrix(12.5663 -9.904 3.6032 4.5717 8494.5391 -12114.5576)" gradientUnits="userSpaceOnUse">
		<stop  offset="0" style="stop-color:#F28A2D;stop-opacity:0.5"/>
		<stop  offset="1" style="stop-color:#F28A2D;stop-opacity:0"/>
	</radialGradient>
	<path class="st3" d="M100.2,50c0,27.5-22.5,50-50,50s-50-22.5-50-50s22.5-50,50-50S100.2,22.5,100.2,50z"/>
	
		<radialGradient id="SVGID_5_" cx="-859.6039" cy="778.5817" r="0.6687" gradientTransform="matrix(15.7394 -2.8762 0.572 3.1299 13116.3047 -4896.5898)" gradientUnits="userSpaceOnUse">
		<stop  offset="0" style="stop-color:#D45F00;stop-opacity:0.15"/>
		<stop  offset="1" style="stop-color:#F28A2D;stop-opacity:0"/>
	</radialGradient>
	<path class="st4" d="M100.2,50c0,27.5-22.5,50-50,50s-50-22.5-50-50s22.5-50,50-50S100.2,22.5,100.2,50z"/>
	
		<radialGradient id="SVGID_6_" cx="-845.6684" cy="664.1876" r="0.6625" gradientTransform="matrix(15.6768 3.1995 -0.6363 3.1176 13748.2363 648.464)" gradientUnits="userSpaceOnUse">
		<stop  offset="0" style="stop-color:#D45F00;stop-opacity:0.15"/>
		<stop  offset="1" style="stop-color:#D45F00;stop-opacity:0"/>
	</radialGradient>
	<path class="st5" d="M100.2,50c0,27.5-22.5,50-50,50s-50-22.5-50-50s22.5-50,50-50S100.2,22.5,100.2,50z"/>
	
		<linearGradient id="SVGID_7_" gradientUnits="userSpaceOnUse" x1="-631.1514" y1="1124.191" x2="-631.1514" y2="1133.6848" gradientTransform="matrix(3.4035 0 0 0.9374 2198.2915 -1020.6334)">
		<stop  offset="0" style="stop-color:#482314"/>
		<stop  offset="1" style="stop-color:#9A4111"/>
	</linearGradient>
	<path class="st6" d="M60.8,36.9c-0.6-1.9-20.6-1.9-21.3,0s3.8,4.4,10.6,4.4S61.4,38.8,60.8,36.9z"/>
	
		<radialGradient id="SVGID_8_" cx="-1152.7122" cy="1010.6656" r="5.45" gradientTransform="matrix(0 -2.1326 2.1327 0 -2124.0737 -2431.5793)" gradientUnits="userSpaceOnUse">
		<stop  offset="0" style="stop-color:#3B446B"/>
		<stop  offset="0.688" style="stop-color:#202340"/>
	</radialGradient>
	<path class="st7" d="M37.7,25.6c0,4.4-2.5,5.6-6.3,6.3s-6.9-1.3-6.9-6.3c0-3.8,1.9-8.8,6.9-8.8C35.8,16.9,37.7,21.9,37.7,25.6z"/>
	<path class="st8" d="M30.8,19.4c0.6,0.6,0.6,2.5-0.6,3.1c-0.6,0.6-1.9,1.3-2.5,0c-0.6-1.3-0.6-1.9,0-3.1
		C28.9,18.8,30.2,18.8,30.8,19.4L30.8,19.4z"/>
	
		<radialGradient id="SVGID_9_" cx="-1152.7234" cy="1025.4701" r="5.45" gradientTransform="matrix(0 -2.1326 2.1327 0 -2118.0596 -2431.6104)" gradientUnits="userSpaceOnUse">
		<stop  offset="0" style="stop-color:#3B446B"/>
		<stop  offset="0.688" style="stop-color:#202340"/>
	</radialGradient>
	<path class="st9" d="M62.7,25.6c0,4.4,2.5,5.6,6.9,6.3c3.8,0.6,6.9-1.3,6.9-6.3c0-3.8-1.9-8.8-6.9-8.8
		C64.5,16.9,62.7,21.9,62.7,25.6z"/>
	<path class="st8" d="M68.9,19.4c0.6,0.6,0,1.9-0.6,3.1c-0.6,0.6-1.9,0.6-2.5,0c-0.6-0.6,0-1.9,0.6-3.1
		C67.7,18.1,68.3,18.1,68.9,19.4z"/>
	
		<radialGradient id="SVGID_10_" cx="-1439.9434" cy="694.7363" r="1.8621" gradientTransform="matrix(-0.339 -1.3177 6.1081 -1.5713 -4700.2271 -795.084)" gradientUnits="userSpaceOnUse">
		<stop  offset="0" style="stop-color:#E38200"/>
		<stop  offset="1" style="stop-color:#CD6700"/>
	</radialGradient>
	<path class="st10" d="M21.4,13.1c-1.3,1.3,0,3.1,1.9,2.5c3.8-1.9,11.3-3.8,17.5-3.1c1.9,0,2.5,0,1.9-2.5c0-1.9-2.5-3.1-7.5-2.5
		C27.7,8.1,22.7,11.9,21.4,13.1z"/>
	
		<radialGradient id="SVGID_11_" cx="-1137.3959" cy="699.9415" r="1.9625" gradientTransform="matrix(0.2577 -1.3359 7.9278 1.5293 -5187.3784 -2580.2974)" gradientUnits="userSpaceOnUse">
		<stop  offset="0" style="stop-color:#E38200"/>
		<stop  offset="1" style="stop-color:#CD6700"/>
	</radialGradient>
	<path class="st11" d="M65.2,7.5c-5-0.6-7.5,0.6-7.5,2.5c-0.6,2.5,0,2.5,1.9,2.5c6.9-0.6,14.4,1.3,17.5,3.1c2.5,1.3,3.1-1.3,1.9-2.5
		C77.7,11.9,72.7,8.1,65.2,7.5z"/>
	
		<linearGradient id="SVGID_12_" gradientUnits="userSpaceOnUse" x1="-814.2661" y1="630.1444" x2="-815.7474" y2="634.5881" gradientTransform="matrix(9.7496 0 0 9.079 7981.2969 -5660.1113)">
		<stop  offset="0" style="stop-color:#F34462"/>
		<stop  offset="1" style="stop-color:#CC0820"/>
	</linearGradient>
	<path class="st12" d="M60.8,53.1c-13.1-3.8-17.5,5-17.5,5s1.2-10-11.9-14.4c-12.5-3.8-20,8.1-20.6,15C9.5,74.4,23.3,91.9,28.3,98.1
		c0.6,1.9,2.5,1.9,4.4,1.9c7.5-1.9,28.7-8.8,36.9-22.5C72.7,70.6,73.3,56.9,60.8,53.1z"/>
	
		<radialGradient id="SVGID_13_" cx="-791.2125" cy="590.3736" r="1.8125" gradientTransform="matrix(8.51 3.1636 -3.1637 8.51 8656.4053 -2452.6558)" gradientUnits="userSpaceOnUse">
		<stop  offset="0" style="stop-color:#FF7091;stop-opacity:0.7"/>
		<stop  offset="1" style="stop-color:#FE6D8E;stop-opacity:0"/>
	</radialGradient>
	<path class="st13" d="M60.8,53.1c-13.1-3.8-17.5,5-17.5,5s1.2-10-11.9-14.4c-12.5-3.8-20,8.1-20.6,15C9.5,74.4,23.3,91.9,28.3,98.1
		c0.6,1.9,2.5,1.9,4.4,1.9c7.5-1.9,28.7-8.8,36.9-22.5C72.7,70.6,73.3,56.9,60.8,53.1z"/>
	
		<radialGradient id="SVGID_14_" cx="-794.427" cy="590.4301" r="1.8125" gradientTransform="matrix(8.51 3.1636 -3.1637 8.51 8655.3623 -2451.2559)" gradientUnits="userSpaceOnUse">
		<stop  offset="0" style="stop-color:#FF7091;stop-opacity:0.7"/>
		<stop  offset="1" style="stop-color:#FE6D8E;stop-opacity:0"/>
	</radialGradient>
	<path class="st14" d="M60.8,53.1c-13.1-3.8-17.5,5-17.5,5s1.2-10-11.9-14.4c-12.5-3.8-20,8.1-20.6,15C9.5,74.4,23.3,91.9,28.3,98.1
		c0.6,1.9,2.5,1.9,4.4,1.9c7.5-1.9,28.7-8.8,36.9-22.5C72.7,70.6,73.3,56.9,60.8,53.1z"/>
	
		<radialGradient id="SVGID_15_" cx="-872.6989" cy="488.5099" r="1.5562" gradientTransform="matrix(-1.8271 8.8932 -12.246 -2.5158 4412.8555 9063.5938)" gradientUnits="userSpaceOnUse">
		<stop  offset="0" style="stop-color:#9C0600"/>
		<stop  offset="1" style="stop-color:#9C0600;stop-opacity:0"/>
	</radialGradient>
	<path class="st15" d="M60.8,53.1c-13.1-3.8-17.5,5-17.5,5s1.2-10-11.9-14.4c-12.5-3.8-20,8.1-20.6,15C9.5,74.4,23.3,91.9,28.3,98.1
		c0.6,1.9,2.5,1.9,4.4,1.9c7.5-1.9,28.7-8.8,36.9-22.5C72.7,70.6,73.3,56.9,60.8,53.1z"/>
	
		<radialGradient id="SVGID_16_" cx="-787.7252" cy="568.9962" r="0.9375" gradientTransform="matrix(7.812 4.6261 -5.8059 9.8043 9528.75 -1859.5596)" gradientUnits="userSpaceOnUse">
		<stop  offset="0" style="stop-color:#9C0600;stop-opacity:0.5"/>
		<stop  offset="1" style="stop-color:#9C0600;stop-opacity:0"/>
	</radialGradient>
	<path class="st16" d="M60.8,53.1c-13.1-3.8-17.5,5-17.5,5s1.2-10-11.9-14.4c-12.5-3.8-20,8.1-20.6,15C9.5,74.4,23.3,91.9,28.3,98.1
		c0.6,1.9,2.5,1.9,4.4,1.9c7.5-1.9,28.7-8.8,36.9-22.5C72.7,70.6,73.3,56.9,60.8,53.1z"/>
	
		<radialGradient id="SVGID_17_" cx="-837.0198" cy="640.744" r="0.8125" gradientTransform="matrix(8.5228 -3.1289 4.0321 10.983 4563.2314 -9599.2832)" gradientUnits="userSpaceOnUse">
		<stop  offset="0" style="stop-color:#9C0600;stop-opacity:0.5"/>
		<stop  offset="1" style="stop-color:#9C0600;stop-opacity:0"/>
	</radialGradient>
	<path class="st17" d="M60.8,53.1c-13.1-3.8-17.5,5-17.5,5s1.2-10-11.9-14.4c-12.5-3.8-20,8.1-20.6,15C9.5,74.4,23.3,91.9,28.3,98.1
		c0.6,1.9,2.5,1.9,4.4,1.9c7.5-1.9,28.7-8.8,36.9-22.5C72.7,70.6,73.3,56.9,60.8,53.1z"/>
	
		<radialGradient id="SVGID_18_" cx="-788.8839" cy="563.7281" r="1.0938" gradientTransform="matrix(7.5205 5.0863 -5.5088 8.1451 9094.2783 -492.1553)" gradientUnits="userSpaceOnUse">
		<stop  offset="0" style="stop-color:#9C0600;stop-opacity:0.999"/>
		<stop  offset="1" style="stop-color:#9C0600;stop-opacity:0"/>
	</radialGradient>
	<path class="st18" d="M60.8,53.1c-13.1-3.8-17.5,5-17.5,5s1.2-10-11.9-14.4c-12.5-3.8-20,8.1-20.6,15C9.5,74.4,23.3,91.9,28.3,98.1
		c0.6,1.9,2.5,1.9,4.4,1.9c7.5-1.9,28.7-8.8,36.9-22.5C72.7,70.6,73.3,56.9,60.8,53.1z"/>
	<defs>
		<filter id="Adobe_OpacityMaskFilter" filterUnits="userSpaceOnUse" x="-1.2" y="45.4" width="42.6" height="34">
			<feColorMatrix  type="matrix" values="1 0 0 0 0  0 1 0 0 0  0 0 1 0 0  0 0 0 1 0"/>
		</filter>
	</defs>
	<mask maskUnits="userSpaceOnUse" x="-1.2" y="45.4" width="42.6" height="34" id="u_1_">
		<path class="st19" d="M100.2,50c0,27.5-22.5,50-50,50s-50-22.5-50-50s22.5-50,50-50S100.2,22.5,100.2,50z"/>
	</mask>
	
		<radialGradient id="SVGID_19_" cx="-718.5668" cy="548.7145" r="7.6625" gradientTransform="matrix(4.3582 3.2271 -3.227 4.3582 4902.022 -25.8384)" gradientUnits="userSpaceOnUse">
		<stop  offset="0" style="stop-color:#EDA83A"/>
		<stop  offset="1" style="stop-color:#FFDC5E"/>
	</radialGradient>
	<path class="st20" d="M8.3,48.1c-3.1-3.1-8.8-5-9.4,2.5c-0.6,5.6,1.9,15.6,8.8,21.2c17.5,13.8,33.1,6.3,33.8-3.8
		c0.6-7.5-8.8-6.9-11.2-6.9c0,0,0,0,0-0.6c0.6-0.6,1.9-1.3,2.5-1.9c2.5-1.9,1.3-5-1.9-4.4c-0.6,0-8.1,2.5-13.1,0.6
		C12.7,53.1,12,51.3,8.3,48.1z"/>
	
		<radialGradient id="SVGID_20_" cx="97.3915" cy="53.7588" r="55.2875" gradientTransform="matrix(1 0 0 -1 0 102)" gradientUnits="userSpaceOnUse">
		<stop  offset="0" style="stop-color:#EDA83A"/>
		<stop  offset="1" style="stop-color:#FFDC5E"/>
	</radialGradient>
	<path class="st21" d="M88.9,48.6c1.9-3.8,5-2.5,6.9-1.9c2.5,0.6,4.4,2.5,4.4,6.3c0,9.4-1.3,18.1-9.4,26.9
		c-14.4,16.3-38.8,13.8-41.3,3.8c-1.9-7.5,6.9-8.8,10-8.8v-0.6c-1.2-0.6-1.9-1.3-3.1-1.9c-2.5-1.9-1.9-5.6,1.3-5
		c3.8,0.6,8.7,1.9,12.5,1.3C82.1,67.4,83.9,58,88.9,48.6L88.9,48.6z"/>
</g>
</svg>
