<?xml version="1.0" encoding="utf-8"?>
<svg version="1.1" id="Layer_1" xmlns="http://www.w3.org/2000/svg" xmlns:xlink="http://www.w3.org/1999/xlink" x="0px" y="0px"
	 viewBox="0 0 100 100" style="enable-background:new 0 0 100 100;" xml:space="preserve">
<style type="text/css">
	.st0{fill:url(#SVGID_1_);}
	.st1{fill:url(#SVGID_2_);}
	.st2{fill:url(#SVGID_3_);}
	.st3{fill:#2A3755;}
</style>
<g>
	
		<linearGradient id="SVGID_1_" gradientUnits="userSpaceOnUse" x1="50" y1="91.75" x2="50" y2="2" gradientTransform="matrix(1 0 0 -1 0 102)">
		<stop  offset="0" style="stop-color:#FEEA70"/>
		<stop  offset="1" style="stop-color:#F69B30"/>
	</linearGradient>
	<path class="st0" d="M100,50c0,13.3-5.3,26-14.6,35.4C76,94.7,63.3,100,50,100c-13.3,0-26-5.3-35.4-14.6C5.3,76,0,63.3,0,50
		c0-13.3,5.3-26,14.6-35.4C24,5.3,36.7,0,50,0c13.3,0,26,5.3,35.4,14.6C94.7,24,100,36.7,100,50"/>
	
		<linearGradient id="SVGID_2_" gradientUnits="userSpaceOnUse" x1="50" y1="58.25" x2="50" y2="14.5" gradientTransform="matrix(1 0 0 -1 0 102)">
		<stop  offset="0" style="stop-color:#472315"/>
		<stop  offset="1" style="stop-color:#8B3A0E"/>
	</linearGradient>
	<path class="st1" d="M18.8,50.1c0,12.6,6.3,37.4,31.3,37.4c25,0,31.3-24.9,31.3-37.4c0-1-10.1-6.3-31.3-6.3S18.8,49.1,18.8,50.1z"
		/>
	
		<linearGradient id="SVGID_3_" gradientUnits="userSpaceOnUse" x1="50.0313" y1="33.25" x2="50.0313" y2="17.8938" gradientTransform="matrix(1 0 0 -1 0 102)">
		<stop  offset="0" style="stop-color:#FC607C"/>
		<stop  offset="1" style="stop-color:#D91F3A"/>
	</linearGradient>
	<path class="st2" d="M28.4,78.1c5,6.2,11.9,9.4,21.7,9.4c9.8,0,16.6-3.2,21.6-9.4c-3.4-3.7-10-9.4-21.6-9.4S31.8,74.4,28.4,78.1z"
		/>
	<path class="st3" d="M38.8,25.9c1.6,1.2,3.1,2.8,2.6,4.9c-0.4,1.6-1.2,2.3-2.6,2.3c-4.9,0.1-10.7,1.6-15.7,3.8
		c-0.4,0.2-1.2,0.5-2.1,0.5c-0.8,0-1.6-0.4-2-1.5c-0.4-1-0.5-2.4,1.7-3.7c3.4-2.1,7.9-3,11.9-3.8c-2.6-1.9-5.3-3.5-8.2-4.8
		c-2.7-1.2-2.4-2.9-2-3.7c0.8-2,3.8-1.2,6.7,0.2C32.6,21.7,35.8,23.7,38.8,25.9L38.8,25.9z M61.2,25.9c3-2.2,6.3-4.2,9.7-5.8
		c2.9-1.4,5.9-2.1,6.7-0.2c0.4,0.9,0.7,2.5-2,3.7c-2.9,1.3-5.7,2.9-8.2,4.8c4.1,0.8,8.5,1.7,11.9,3.8c2.2,1.3,2.1,2.8,1.7,3.7
		c-0.5,1.1-1.3,1.5-2,1.5c-0.8,0-1.7-0.4-2.1-0.5c-5-2.2-10.8-3.8-15.7-3.8c-1.4,0-2.2-0.7-2.6-2.3C58.1,28.7,59.5,27.1,61.2,25.9
		L61.2,25.9z"/>
</g>
</svg>
