<?xml version="1.0" encoding="utf-8"?>
<svg version="1.1" id="Layer_1" xmlns="http://www.w3.org/2000/svg" xmlns:xlink="http://www.w3.org/1999/xlink" x="0px" y="0px"
	 viewBox="0 0 100 100" style="enable-background:new 0 0 100 100;" xml:space="preserve">
<style type="text/css">
	.st0{fill:url(#SVGID_1_);}
	.st1{fill:#FFFFFF;}
</style>
<g>
	
		<linearGradient id="SVGID_1_" gradientUnits="userSpaceOnUse" x1="50" y1="102" x2="50" y2="2" gradientTransform="matrix(1 0 0 -1 0 102)">
		<stop  offset="0" style="stop-color:#18AFFF"/>
		<stop  offset="1" style="stop-color:#0062DF"/>
	</linearGradient>
	<path class="st0" d="M50,0C36.7,0,24,5.3,14.6,14.6C5.3,24,0,36.7,0,50c0,13.3,5.3,26,14.6,35.4C24,94.7,36.7,100,50,100
		c13.3,0,26-5.3,35.4-14.6C94.7,76,100,63.3,100,50c0-13.3-5.3-26-14.6-35.4C76,5.3,63.3,0,50,0L50,0z"/>
	<path class="st1" d="M76,45.9c1.1,0.8,2.1,1.5,2.1,4.2c0,2.7-1.4,3.8-3,4.5c0.6,1,0.8,2.2,0.6,3.4c-0.5,2.2-2.5,3.8-4.2,4.3
		c0.8,1.2,1,2.4,0.1,3.9c-1.2,1.8-2.2,2.5-6.6,2.5H46.9c-6.2,0-9.4-3.4-9.4-6.3V47.9c0-7.7,9.2-14.2,9.2-19.6L46,21.7
		c0-0.4,0.1-1.4,0.4-1.7c0.5-0.5,1.9-1.3,4-1.3c1.4,0,2.3,0.3,3.3,0.8c3.6,1.7,4.6,6.1,4.6,9.6c0,1.7-2.6,6.8-2.9,8.5
		c0,0,5.4-1.2,11.7-1.2c6.6,0,10.9,1.2,10.9,5.3C78,43.3,76.6,45,76,45.9L76,45.9z M22.5,43.8h5c1,0,1.9,0.4,2.7,1.1
		c0.7,0.7,1.1,1.7,1.1,2.7v23.8c0,1-0.4,1.9-1.1,2.7c-0.7,0.7-1.7,1.1-2.7,1.1h-5c-1,0-1.9-0.4-2.7-1.1c-0.7-0.7-1.1-1.7-1.1-2.7
		V47.5c0-1,0.4-1.9,1.1-2.7C20.6,44.1,21.5,43.8,22.5,43.8L22.5,43.8z"/>
</g>
</svg>
