<svg width="96" height="96" viewBox="0 0 96 96" fill="none" xmlns="http://www.w3.org/2000/svg">
<rect width="96" height="96" rx="48" fill="#003A87"/>
<g clip-path="url(#clip0_175_2084)">
<path d="M58.957 65.3688H57.7451C58.6775 65.3688 59.5194 65.7484 60.1294 66.366C60.7406 66.9824 61.1175 67.8344 61.1175 68.7754C61.1175 70.6586 59.6076 72.1832 57.7451 72.1832H56.5344C57.4645 72.1832 58.3099 72.5652 58.9187 73.1805C59.5287 73.7969 59.9056 74.6512 59.9056 75.591C59.9056 77.4742 58.3969 78.9988 56.5344 78.9988H36.6251L31.7301 76.4887L27.1157 69.1914L29.7957 58.1219L30.56 54.9625L42.0802 47.9395C44.0737 46.7266 46.6308 47.0395 48.2764 48.7035L54.8552 51.7352H57.7463C58.6787 51.7352 59.5206 52.1172 60.1306 52.7324C60.7417 53.35 61.1186 54.2008 61.1186 55.1418C61.1186 57.025 59.6087 58.5508 57.7463 58.5508H58.9581C60.8206 58.5508 62.3293 60.0754 62.3293 61.9574C62.3282 63.843 60.8194 65.3688 58.957 65.3688Z" fill="#FDDCCE"/>
<path d="M50.6049 51.059C49.8036 51.4891 48.7309 51.7375 47.3497 51.7375C36.9532 51.7375 32.5604 58.4254 32.5604 61.4769L29.7957 58.123L30.5599 54.9637L42.0802 47.9406C44.0737 46.7277 46.6307 47.0406 48.2763 48.7047L50.6049 51.059Z" fill="#FBCBBF"/>
<path d="M47.3497 36.0531H54.8552V51.7375H47.3497V36.0531Z" fill="#FFC107"/>
<path d="M47.3497 36.0531H50.0297V51.7375H47.3497V36.0531Z" fill="#DCA604"/>
<path d="M59.9079 75.5922C59.9079 77.4754 58.3968 79 56.5355 79H36.625C34.6142 79 32.8329 78.0121 31.73 76.4898H56.5355C57.9596 76.4898 59.1761 75.598 59.6701 74.3371C59.6713 74.3418 59.6748 74.3453 59.6771 74.3488C59.8255 74.7332 59.9079 75.1527 59.9079 75.5922Z" fill="#FBCBBF"/>
<path d="M60.8808 67.5203C61.0328 67.9094 61.1174 68.3324 61.1174 68.7754C61.1174 70.6586 59.6075 72.1844 57.7462 72.1844H56.4544C55.7678 72.1844 55.2123 71.6219 55.2123 70.9293C55.2123 70.2356 55.769 69.6742 56.4544 69.6742H57.7462C59.1692 69.6742 60.3857 68.7824 60.8808 67.5203Z" fill="#FBCBBF"/>
<path d="M62.0916 60.7047C62.2435 61.0937 62.3282 61.5168 62.3282 61.9598C62.3282 63.843 60.8183 65.3687 58.957 65.3687H57.6651C56.9786 65.3687 56.4231 64.8062 56.4231 64.1137C56.4231 63.4199 56.9797 62.8586 57.6651 62.8586H58.957C60.3811 62.8586 61.5976 61.9668 62.0916 60.7047Z" fill="#FBCBBF"/>
<path d="M60.882 53.8891C61.0339 54.2781 61.1186 54.7012 61.1186 55.1441C61.1186 57.0273 59.6087 58.5531 57.7474 58.5531H56.4555C55.769 58.5531 55.2135 57.9906 55.2135 57.2981C55.2135 56.6043 55.7701 56.043 56.4555 56.043H57.7474C59.1715 56.043 60.388 55.1512 60.882 53.8891Z" fill="#FBCBBF"/>
<path d="M23.0012 55.0797V76.3316C23.0012 77.8047 24.1829 79 25.6417 79H30.8487C32.3076 79 33.4893 77.8047 33.4893 76.3316V55.0797C33.4893 53.6055 32.3064 52.4113 30.8487 52.4113H25.6417C24.1829 52.4101 23.0012 53.6055 23.0012 55.0797Z" fill="#00B3FF"/>
<path opacity="0.5" d="M23 69.6379V76.3328C23 77.8059 24.1829 79 25.6417 79H30.8487C32.3076 79 33.4893 77.8059 33.4893 76.3316V69.6367C33.4893 71.1109 32.3076 72.3062 30.8487 72.3062H25.6417C24.1829 72.3074 23 71.1109 23 69.6379Z" fill="#2D9CDB"/>
<path d="M51.1465 48.8711C59.3093 48.8711 65.9266 42.1842 65.9266 33.9355C65.9266 25.6869 59.3093 19 51.1465 19C42.9837 19 36.3665 25.6869 36.3665 33.9355C36.3665 42.1842 42.9837 48.8711 51.1465 48.8711Z" fill="#FFC107"/>
<path d="M52.8164 48.7773C52.269 48.8406 51.7112 48.8711 51.1476 48.8711C42.9847 48.8711 36.3676 42.1844 36.3676 33.9355C36.3664 25.6879 42.9847 19 51.1476 19C51.7112 19 52.269 19.0316 52.8164 19.0938C45.4397 19.9328 39.7051 26.2574 39.7051 33.9355C39.7051 41.6148 45.4397 47.9395 52.8164 48.7773Z" fill="#DCA604"/>
<path d="M34.1167 24.175L33.9682 24.4352C33.4452 25.3516 32.3087 25.702 31.3682 25.2367L28.476 23.8059C27.4404 23.2938 27.0496 22.0012 27.6271 20.9922L27.9959 20.3465C28.5723 19.3375 29.8746 19.0317 30.8325 19.6832L33.5044 21.4996C34.373 22.0891 34.6408 23.2586 34.1167 24.175Z" fill="#F2F4F6"/>
<path d="M68.1764 43.6961L68.3248 43.4359C68.8478 42.5195 69.9843 42.1691 70.9248 42.6344L73.817 44.0652C74.8526 44.5773 75.2434 45.8699 74.6659 46.8789L74.2972 47.5246C73.7208 48.5336 72.4185 48.8383 71.4606 48.1879L68.7887 46.3715C67.9212 45.7809 67.6534 44.6113 68.1764 43.6961Z" fill="#F2F4F6"/>
<path d="M31.49 33.7856V34.0856C31.49 35.1438 30.6794 36.0203 29.6345 36.093L26.421 36.3157C25.2706 36.3953 24.293 35.4731 24.293 34.3082V33.5629C24.293 32.3969 25.2695 31.4758 26.421 31.5555L29.6345 31.7782C30.6782 31.8496 31.49 32.7274 31.49 33.7856Z" fill="#F2F4F6"/>
<path d="M70.8042 34.0856V33.7856C70.8042 32.7274 71.6148 31.8508 72.6597 31.7781L75.8731 31.5555C77.0235 31.4758 78.0012 32.3981 78.0012 33.5629V34.3082C78.0012 35.4742 77.0247 36.3953 75.8731 36.3156L72.6597 36.093C71.6148 36.0203 70.8042 35.1438 70.8042 34.0856Z" fill="#F2F4F6"/>
<path d="M33.9682 43.436L34.1166 43.6961C34.6397 44.6125 34.3718 45.7821 33.5032 46.3727L30.8313 48.1891C29.8745 48.8395 28.5722 48.5348 27.9947 47.5258L27.6259 46.8801C27.0496 45.8711 27.4392 44.5785 28.4748 44.0664L31.3671 42.6356C32.3087 42.1692 33.4452 42.5196 33.9682 43.436Z" fill="#F2F4F6"/>
<path d="M68.3248 24.4352L68.1764 24.175C67.6534 23.2586 67.9213 22.0891 68.7899 21.4984L71.4617 19.682C72.4185 19.0317 73.7208 19.3363 74.2983 20.3453L74.6671 20.991C75.2434 22 74.8538 23.2926 73.8182 23.8047L70.926 25.2356C69.9843 25.7008 68.8478 25.3516 68.3248 24.4352Z" fill="#F2F4F6"/>
<path d="M44.0366 36.9583C44.0366 37.4526 43.9767 37.8457 43.8557 38.1363C43.7348 38.4268 43.5695 38.6293 43.3601 38.7423C43.1493 38.8554 42.8722 38.9119 42.5287 38.9119C42.0214 38.9119 41.6545 38.7752 41.4268 38.5017C41.1991 38.2283 41.0808 37.7445 41.0729 37.0503L41.0469 32.2452H39.9515C39.4103 32.2452 39.0044 32.1585 38.7338 31.9849C38.4632 31.8114 38.3279 31.5025 38.3279 31.0607C38.3279 30.7912 38.3812 30.5783 38.4892 30.4231C38.5972 30.2667 38.7572 30.1562 38.9719 30.0905C39.1865 30.0248 39.474 29.9932 39.8357 29.9932H45.3519C45.8332 29.9932 46.1806 30.08 46.3953 30.2535C46.6099 30.4271 46.7179 30.7268 46.7179 31.1514C46.7179 31.438 46.6555 31.6615 46.5306 31.8219C46.4057 31.9823 46.2404 32.0927 46.0349 32.1545C45.8293 32.2163 45.5626 32.2452 45.2361 32.2452H44.0379V36.9583H44.0366Z" fill="#F2F4F6"/>
<path d="M49.6685 38.9106C49.273 38.9014 48.9555 38.8396 48.7148 38.7213C48.4742 38.6043 48.2933 38.4111 48.1736 38.1416C48.0526 37.8721 47.9928 37.5118 47.9928 37.0609V31.5525C47.9928 31.0923 48.1255 30.7176 48.3922 30.4258C48.6589 30.1352 49.0102 29.9893 49.4486 29.9893C49.9638 29.9893 50.3437 30.0853 50.5896 30.2759C50.8341 30.4665 50.9564 30.8531 50.9564 31.4355V36.6573H53.1603C53.6586 36.6573 54.0085 36.7309 54.2102 36.8782C54.4118 37.0254 54.5133 37.3291 54.5133 37.7892C54.5133 38.2586 54.3975 38.5623 54.166 38.7003C53.9344 38.8396 53.5558 38.908 53.0315 38.908H49.6685V38.9106Z" fill="#F2F4F6"/>
<path d="M60.2234 32.4385C60.2234 32.2558 60.148 32.0993 59.9984 31.9692C59.8475 31.839 59.6692 31.7733 59.4637 31.7733C59.0513 31.7733 58.7117 32.0099 58.445 32.4832C58.1783 32.9565 58.0456 33.4929 58.0456 34.091C58.0456 34.5512 58.1315 34.9653 58.3032 35.3347C58.4749 35.7041 58.7247 35.9973 59.0513 36.2142C59.3778 36.4311 59.7551 36.5403 60.1857 36.5403C60.5031 36.5403 60.8089 36.4772 61.1003 36.3509C61.3917 36.2247 61.6285 36.0867 61.8093 35.9342C61.9902 35.7817 62.1762 35.6437 62.3701 35.5175C62.5639 35.3912 62.733 35.3281 62.8787 35.3281C63.0674 35.3281 63.2313 35.4044 63.3679 35.5556C63.5058 35.7081 63.5735 35.8658 63.5735 36.0315C63.5735 36.2142 63.5201 36.4272 63.4121 36.6691C63.3042 36.9123 63.135 37.17 62.9035 37.4434C62.6719 37.7169 62.4013 37.9693 62.0917 38.1994C61.782 38.4294 61.3982 38.6201 60.9377 38.7726C60.4784 38.9237 59.9945 39 59.4884 39C58.8184 39 58.1978 38.8975 57.6267 38.6937C57.0556 38.4899 56.5586 38.1994 56.1384 37.8207C55.7168 37.4434 55.3864 36.9675 55.1457 36.3943C54.905 35.8211 54.7853 35.1783 54.7853 34.467C54.7853 33.0603 55.2017 31.9494 56.0356 31.133C56.8682 30.3166 57.9597 29.9091 59.3088 29.9091C59.9958 29.9091 60.6319 30.0261 61.2161 30.2601C61.8002 30.4941 62.2647 30.8202 62.6081 31.2369C62.9516 31.6536 63.1233 32.1098 63.1233 32.6042C63.1233 33.1773 62.9347 33.6966 62.5561 34.1607C62.1775 34.6248 61.6883 34.8575 61.0873 34.8575C60.7438 34.8575 60.4342 34.7615 60.1597 34.5709C59.8852 34.3803 59.7473 34.1068 59.7473 33.7505C59.7473 33.5862 59.8266 33.3561 59.9854 33.0603C60.1441 32.7685 60.2234 32.5608 60.2234 32.4385Z" fill="#F2F4F6"/>
</g>
<defs>
<clipPath id="clip0_175_2084">
<rect width="55" height="60" fill="white" transform="translate(23 19)"/>
</clipPath>
</defs>
</svg>
