<svg width="96" height="96" viewBox="0 0 96 96" fill="none" xmlns="http://www.w3.org/2000/svg">
<g clip-path="url(#clip0_2303_4729)">
<mask id="mask0_2303_4729" style="mask-type:luminance" maskUnits="userSpaceOnUse" x="23" y="19" width="55" height="60">
<path d="M78 19H23V79H78V19Z" fill="white"/>
</mask>
<g mask="url(#mask0_2303_4729)">
<path d="M58.957 65.3689H57.7451C58.6775 65.3689 59.5194 65.7485 60.1294 66.3661C60.7406 66.9825 61.1175 67.8345 61.1175 68.7755C61.1175 70.6587 59.6076 72.1833 57.7451 72.1833H56.5344C57.4645 72.1833 58.3099 72.5653 58.9187 73.1806C59.5287 73.797 59.9056 74.6513 59.9056 75.5911C59.9056 77.4743 58.3969 78.9989 56.5344 78.9989H36.6251L31.7301 76.4888L27.1157 69.1915L29.7957 58.122L30.56 54.9626L42.0802 47.9396C44.0737 46.7267 46.6308 47.0396 48.2764 48.7036L54.8552 51.7353H57.7463C58.6787 51.7353 59.5206 52.1173 60.1306 52.7325C60.7417 53.3501 61.1186 54.2009 61.1186 55.1419C61.1186 57.0251 59.6087 58.5509 57.7463 58.5509H58.9581C60.8206 58.5509 62.3293 60.0755 62.3293 61.9575C62.3282 63.8431 60.8194 65.3689 58.957 65.3689Z" fill="#FDDCCE"/>
<path d="M50.6049 51.0589C49.8036 51.489 48.7309 51.7374 47.3497 51.7374C36.9532 51.7374 32.5604 58.4253 32.5604 61.4768L29.7957 58.1229L30.5599 54.9636L42.0802 47.9405C44.0737 46.7276 46.6307 47.0405 48.2763 48.7046L50.6049 51.0589Z" fill="#FBCBBF"/>
<path d="M47.3496 36.0532H54.8551V51.7376H47.3496V36.0532Z" fill="#FFC107"/>
<path d="M47.3496 36.0532H50.0296V51.7376H47.3496V36.0532Z" fill="#DCA604"/>
<path d="M59.9079 75.5923C59.9079 77.4755 58.3968 79.0001 56.5355 79.0001H36.625C34.6142 79.0001 32.8329 78.0122 31.73 76.4899H56.5355C57.9596 76.4899 59.1761 75.5981 59.6701 74.3372C59.6713 74.3419 59.6748 74.3454 59.6771 74.3489C59.8255 74.7333 59.9079 75.1528 59.9079 75.5923Z" fill="#FBCBBF"/>
<path d="M60.8809 67.5203C61.0329 67.9094 61.1175 68.3324 61.1175 68.7754C61.1175 70.6586 59.6076 72.1844 57.7463 72.1844H56.4545C55.7679 72.1844 55.2124 71.6219 55.2124 70.9293C55.2124 70.2356 55.7691 69.6742 56.4545 69.6742H57.7463C59.1693 69.6742 60.3858 68.7824 60.8809 67.5203Z" fill="#FBCBBF"/>
<path d="M62.0916 60.7046C62.2435 61.0936 62.3282 61.5167 62.3282 61.9597C62.3282 63.8429 60.8183 65.3686 58.957 65.3686H57.6651C56.9786 65.3686 56.4231 64.8061 56.4231 64.1136C56.4231 63.4198 56.9797 62.8585 57.6651 62.8585H58.957C60.3811 62.8585 61.5976 61.9667 62.0916 60.7046Z" fill="#FBCBBF"/>
<path d="M60.8819 53.8892C61.0338 54.2782 61.1185 54.7013 61.1185 55.1442C61.1185 57.0274 59.6086 58.5532 57.7473 58.5532H56.4554C55.7689 58.5532 55.2134 57.9907 55.2134 57.2982C55.2134 56.6044 55.77 56.0431 56.4554 56.0431H57.7473C59.1714 56.0431 60.3879 55.1513 60.8819 53.8892Z" fill="#FBCBBF"/>
<path d="M23.0012 55.0798V76.3317C23.0012 77.8048 24.1829 79.0001 25.6417 79.0001H30.8487C32.3076 79.0001 33.4893 77.8048 33.4893 76.3317V55.0798C33.4893 53.6056 32.3064 52.4114 30.8487 52.4114H25.6417C24.1829 52.4102 23.0012 53.6056 23.0012 55.0798Z" fill="#00B3FF"/>
<path opacity="0.5" d="M23 69.6379V76.3328C23 77.8059 24.1829 79 25.6417 79H30.8487C32.3076 79 33.4893 77.8059 33.4893 76.3316V69.6367C33.4893 71.1109 32.3076 72.3062 30.8487 72.3062H25.6417C24.1829 72.3074 23 71.1109 23 69.6379Z" fill="#2D9CDB"/>
<path d="M51.1465 48.8711C59.3093 48.8711 65.9266 42.1842 65.9266 33.9355C65.9266 25.6869 59.3093 19 51.1465 19C42.9837 19 36.3665 25.6869 36.3665 33.9355C36.3665 42.1842 42.9837 48.8711 51.1465 48.8711Z" fill="#FFC107"/>
<path d="M52.8165 48.7773C52.2691 48.8406 51.7113 48.8711 51.1477 48.8711C42.9848 48.8711 36.3677 42.1844 36.3677 33.9355C36.3665 25.6879 42.9848 19 51.1477 19C51.7113 19 52.2691 19.0316 52.8165 19.0938C45.4398 19.9328 39.7052 26.2574 39.7052 33.9355C39.7052 41.6148 45.4398 47.9395 52.8165 48.7773Z" fill="#DCA604"/>
<path d="M34.1166 24.1749L33.9681 24.4351C33.4451 25.3515 32.3086 25.7019 31.3681 25.2366L28.4759 23.8058C27.4403 23.2937 27.0495 22.0011 27.627 20.9921L27.9958 20.3464C28.5722 19.3374 29.8745 19.0316 30.8324 19.6831L33.5043 21.4995C34.3729 22.089 34.6407 23.2585 34.1166 24.1749Z" fill="#F2F4F6"/>
<path d="M68.1764 43.6962L68.3248 43.436C68.8478 42.5196 69.9843 42.1692 70.9248 42.6345L73.817 44.0653C74.8526 44.5774 75.2434 45.87 74.6659 46.879L74.2972 47.5247C73.7208 48.5337 72.4185 48.8384 71.4606 48.188L68.7887 46.3716C67.9212 45.781 67.6534 44.6114 68.1764 43.6962Z" fill="#F2F4F6"/>
<path d="M31.49 33.7857V34.0857C31.49 35.1439 30.6794 36.0204 29.6345 36.0931L26.421 36.3158C25.2706 36.3954 24.293 35.4732 24.293 34.3083V33.563C24.293 32.397 25.2695 31.4759 26.421 31.5556L29.6345 31.7783C30.6782 31.8497 31.49 32.7275 31.49 33.7857Z" fill="#F2F4F6"/>
<path d="M70.8042 34.0857V33.7857C70.8042 32.7275 71.6148 31.8509 72.6597 31.7782L75.8731 31.5556C77.0235 31.4759 78.0012 32.3982 78.0012 33.563V34.3083C78.0012 35.4743 77.0247 36.3954 75.8731 36.3157L72.6597 36.0931C71.6148 36.0204 70.8042 35.1439 70.8042 34.0857Z" fill="#F2F4F6"/>
<path d="M33.9683 43.4361L34.1167 43.6962C34.6398 44.6126 34.3719 45.7822 33.5033 46.3728L30.8314 48.1892C29.8746 48.8396 28.5723 48.5349 27.9948 47.5259L27.626 46.8802C27.0497 45.8712 27.4393 44.5786 28.4749 44.0665L31.3672 42.6357C32.3088 42.1693 33.4453 42.5197 33.9683 43.4361Z" fill="#F2F4F6"/>
<path d="M68.3248 24.4353L68.1764 24.1751C67.6534 23.2587 67.9213 22.0892 68.7899 21.4985L71.4617 19.6821C72.4185 19.0318 73.7208 19.3364 74.2983 20.3454L74.6671 20.9911C75.2434 22.0001 74.8538 23.2927 73.8182 23.8048L70.926 25.2357C69.9843 25.7009 68.8478 25.3517 68.3248 24.4353Z" fill="#F2F4F6"/>
<path d="M44.0366 36.9583C44.0366 37.4526 43.9767 37.8457 43.8557 38.1363C43.7348 38.4268 43.5695 38.6293 43.3601 38.7423C43.1493 38.8554 42.8722 38.9119 42.5287 38.9119C42.0214 38.9119 41.6545 38.7752 41.4268 38.5017C41.1991 38.2283 41.0808 37.7445 41.0729 37.0503L41.0469 32.2452H39.9515C39.4103 32.2452 39.0044 32.1585 38.7338 31.9849C38.4632 31.8114 38.3279 31.5025 38.3279 31.0607C38.3279 30.7912 38.3812 30.5783 38.4892 30.4231C38.5972 30.2667 38.7572 30.1562 38.9719 30.0905C39.1865 30.0248 39.474 29.9932 39.8357 29.9932H45.3519C45.8332 29.9932 46.1806 30.08 46.3953 30.2535C46.6099 30.4271 46.7179 30.7268 46.7179 31.1514C46.7179 31.438 46.6555 31.6615 46.5306 31.8219C46.4057 31.9823 46.2404 32.0927 46.0349 32.1545C45.8293 32.2163 45.5626 32.2452 45.2361 32.2452H44.0379V36.9583H44.0366Z" fill="#F2F4F6"/>
<path d="M49.6686 38.9106C49.2731 38.9014 48.9556 38.8396 48.7149 38.7213C48.4743 38.6043 48.2934 38.4111 48.1737 38.1416C48.0527 37.8721 47.9929 37.5118 47.9929 37.0609V31.5525C47.9929 31.0923 48.1256 30.7176 48.3923 30.4258C48.659 30.1352 49.0103 29.9893 49.4487 29.9893C49.9639 29.9893 50.3438 30.0853 50.5897 30.2759C50.8342 30.4665 50.9565 30.8531 50.9565 31.4355V36.6573H53.1604C53.6587 36.6573 54.0086 36.7309 54.2103 36.8782C54.4119 37.0254 54.5134 37.3291 54.5134 37.7892C54.5134 38.2586 54.3976 38.5623 54.1661 38.7003C53.9345 38.8396 53.5559 38.908 53.0316 38.908H49.6686V38.9106Z" fill="#F2F4F6"/>
<path d="M60.2235 32.4386C60.2235 32.2559 60.1481 32.0994 59.9985 31.9693C59.8476 31.8391 59.6693 31.7734 59.4638 31.7734C59.0514 31.7734 58.7118 32.01 58.4451 32.4833C58.1784 32.9566 58.0457 33.493 58.0457 34.0911C58.0457 34.5513 58.1316 34.9654 58.3033 35.3348C58.475 35.7042 58.7248 35.9974 59.0514 36.2143C59.3779 36.4312 59.7552 36.5404 60.1858 36.5404C60.5032 36.5404 60.809 36.4773 61.1004 36.351C61.3918 36.2248 61.6286 36.0868 61.8094 35.9343C61.9903 35.7818 62.1763 35.6438 62.3702 35.5176C62.564 35.3913 62.7331 35.3282 62.8788 35.3282C63.0675 35.3282 63.2314 35.4045 63.368 35.5557C63.5059 35.7082 63.5736 35.8659 63.5736 36.0316C63.5736 36.2143 63.5202 36.4273 63.4122 36.6692C63.3043 36.9124 63.1351 37.1701 62.9036 37.4435C62.672 37.717 62.4014 37.9694 62.0918 38.1995C61.7821 38.4295 61.3983 38.6202 60.9378 38.7727C60.4785 38.9238 59.9946 39.0001 59.4885 39.0001C58.8185 39.0001 58.1979 38.8976 57.6268 38.6938C57.0557 38.49 56.5587 38.1995 56.1385 37.8208C55.7169 37.4435 55.3865 36.9676 55.1458 36.3944C54.9051 35.8212 54.7854 35.1784 54.7854 34.4671C54.7854 33.0604 55.2018 31.9495 56.0357 31.1331C56.8683 30.3167 57.9598 29.9092 59.3089 29.9092C59.9959 29.9092 60.632 30.0262 61.2162 30.2602C61.8003 30.4942 62.2648 30.8203 62.6082 31.237C62.9517 31.6537 63.1234 32.1099 63.1234 32.6043C63.1234 33.1774 62.9348 33.6967 62.5562 34.1608C62.1776 34.6249 61.6884 34.8576 61.0874 34.8576C60.7439 34.8576 60.4343 34.7616 60.1598 34.571C59.8853 34.3804 59.7474 34.1069 59.7474 33.7506C59.7474 33.5863 59.8267 33.3562 59.9855 33.0604C60.1442 32.7686 60.2235 32.5609 60.2235 32.4386Z" fill="#F2F4F6"/>
</g>
</g>
<defs>
<clipPath id="clip0_2303_4729">
<rect width="96" height="96" fill="white"/>
</clipPath>
</defs>
</svg>
