<?xml version="1.0" encoding="utf-8"?>
<svg version="1.1" id="Layer_1" xmlns="http://www.w3.org/2000/svg" xmlns:xlink="http://www.w3.org/1999/xlink" x="0px" y="0px"
	 viewBox="0 0 100 100" style="enable-background:new 0 0 100 100;" xml:space="preserve">
<style type="text/css">
	.st0{fill:url(#SVGID_1_);}
	.st1{fill:url(#SVGID_2_);}
	.st2{fill:url(#SVGID_3_);}
	.st3{fill:#4E506A;}
	.st4{fill:url(#SVGID_4_);}
	.st5{fill:url(#SVGID_5_);}
	.st6{fill:url(#SVGID_6_);}
</style>
<g>
	
		<linearGradient id="SVGID_1_" gradientUnits="userSpaceOnUse" x1="50" y1="91.75" x2="50" y2="2" gradientTransform="matrix(1 0 0 -1 0 102)">
		<stop  offset="0" style="stop-color:#FEEA70"/>
		<stop  offset="1" style="stop-color:#F69B30"/>
	</linearGradient>
	<path class="st0" d="M100,50c0,13.3-5.3,26-14.6,35.4C76,94.7,63.3,100,50,100c-13.3,0-26-5.3-35.4-14.6C5.3,76,0,63.3,0,50
		c0-13.3,5.3-26,14.6-35.4C24,5.3,36.7,0,50,0c13.3,0,26,5.3,35.4,14.6C94.7,24,100,36.7,100,50"/>
	
		<linearGradient id="SVGID_2_" gradientUnits="userSpaceOnUse" x1="50" y1="33.25" x2="50" y2="20.75" gradientTransform="matrix(1 0 0 -1 0 102)">
		<stop  offset="0" style="stop-color:#472315"/>
		<stop  offset="1" style="stop-color:#8B3A0E"/>
	</linearGradient>
	<path class="st1" d="M33.3,79.8c0,0.9,0.6,1.5,1.6,1.5c2.2,0,5.2-3.9,15.1-3.9s12.9,3.9,15.1,3.9c1,0,1.6-0.6,1.6-1.5
		c0-2.5-5.2-11-16.7-11S33.3,77.3,33.3,79.8z"/>
	
		<linearGradient id="SVGID_3_" gradientUnits="userSpaceOnUse" x1="49.9948" y1="56.1626" x2="49.9948" y2="39.5001" gradientTransform="matrix(1 0 0 -1 0 102)">
		<stop  offset="0" style="stop-color:#191A33"/>
		<stop  offset="0.872" style="stop-color:#3B426A"/>
	</linearGradient>
	<path class="st2" d="M22.5,55c0-5.1,3.2-9.2,7.1-9.2c3.9,0,7.1,4.1,7.1,9.2c0,2.1-0.6,4.1-1.5,5.6c-0.4,0.7-1.1,1.2-1.9,1.4
		c-0.9,0.2-2.2,0.5-3.7,0.5c-1.5,0-2.8-0.3-3.7-0.5c-0.8-0.2-1.5-0.7-1.9-1.4C23,58.9,22.5,57,22.5,55L22.5,55z M63.3,55
		c0-5.1,3.2-9.2,7.1-9.2c3.9,0,7.1,4.1,7.1,9.2c0,2.1-0.6,4.1-1.5,5.6c-0.2,0.3-0.5,0.6-0.8,0.9c-0.3,0.2-0.7,0.4-1.1,0.5
		c-2.4,0.6-5,0.6-7.4,0c-0.4-0.1-0.8-0.3-1.1-0.5c-0.3-0.2-0.6-0.5-0.8-0.9C63.8,58.9,63.3,57,63.3,55L63.3,55z"/>
	<path d="M22.5,55c0-5.1,3.2-9.2,7.1-9.2c3.9,0,7.1,4.1,7.1,9.2c0,2.1-0.6,4.1-1.5,5.6c-0.4,0.7-1.1,1.2-1.9,1.4
		c-0.9,0.2-2.2,0.5-3.7,0.5c-1.5,0-2.8-0.3-3.7-0.5c-0.8-0.2-1.5-0.7-1.9-1.4C23,58.9,22.5,57,22.5,55L22.5,55z M63.3,55
		c0-5.1,3.2-9.2,7.1-9.2c3.9,0,7.1,4.1,7.1,9.2c0,2.1-0.6,4.1-1.5,5.6c-0.2,0.3-0.5,0.6-0.8,0.9c-0.3,0.2-0.7,0.4-1.1,0.5
		c-2.4,0.6-5,0.6-7.4,0c-0.4-0.1-0.8-0.3-1.1-0.5c-0.3-0.2-0.6-0.5-0.8-0.9C63.8,58.9,63.3,57,63.3,55L63.3,55z"/>
	<path class="st3" d="M28.8,49.9c0.8,0.8,0.8,2.3,0.1,3.4c-0.8,1.1-2,1.4-2.8,0.6c-0.8-0.8-0.8-2.3-0.1-3.4
		C26.8,49.4,28,49.1,28.8,49.9L28.8,49.9z M69.4,49.9c0.8,0.8,0.8,2.3,0.1,3.4c-0.8,1.1-2,1.4-2.8,0.6c-0.8-0.8-0.8-2.3-0.1-3.4
		C67.4,49.4,68.6,49.1,69.4,49.9L69.4,49.9z"/>
	
		<linearGradient id="SVGID_4_" gradientUnits="userSpaceOnUse" x1="49.9984" y1="71.1651" x2="49.9984" y2="57.0036" gradientTransform="matrix(1 0 0 -1 0 102)">
		<stop  offset="0" style="stop-color:#E78E0D"/>
		<stop  offset="1" style="stop-color:#CB6000"/>
	</linearGradient>
	<path class="st4" d="M26,32.2c2.1-1,3.7-1.4,5-1.4c1.7,0,2.8,0.7,3.4,1.9c1.1,2.1,0.6,2.5-1.2,2.9c-6.9,1.4-13.9,5.9-16.9,8.7
		c-1.9,1.8-3.7-0.2-2.7-1.7C14.6,41.1,18.4,35.7,26,32.2L26,32.2z M65.6,32.7c0.6-1.2,1.7-1.9,3.4-1.9c1.3,0,2.9,0.4,5,1.4
		c7.6,3.5,11.4,8.9,12.4,10.4c1,1.5-0.8,3.5-2.7,1.7c-3-2.8-10-7.3-16.9-8.7C65,35.3,64.5,34.8,65.6,32.7L65.6,32.7z"/>
	
		<linearGradient id="SVGID_5_" gradientUnits="userSpaceOnUse" x1="84.375" y1="7.9375" x2="84.375" y2="28.925" gradientTransform="matrix(1 0 0 -1 0 102)">
		<stop  offset="0" style="stop-color:#35CAFC"/>
		<stop  offset="1" style="stop-color:#007EDB"/>
	</linearGradient>
	<path class="st5" d="M84.4,100c-5.2,0-9.4-4.7-9.4-10.4c0-5.8,2.2-9.7,4-13.4c3.7-7.9,4.5-9,5.4-9s1.6,1.1,5.4,9
		c1.8,3.8,4,7.7,4,13.4C93.8,95.3,89.6,100,84.4,100z"/>
	
		<linearGradient id="SVGID_6_" gradientUnits="userSpaceOnUse" x1="84.3763" y1="29.9481" x2="84.3763" y2="16.9606" gradientTransform="matrix(1 0 0 -1 0 102)">
		<stop  offset="0" style="stop-color:#6AE1FF;stop-opacity:0.287"/>
		<stop  offset="1" style="stop-color:#A8E3FF;stop-opacity:0.799"/>
	</linearGradient>
	<path class="st6" d="M84.4,85c-2.1,0-3.7-1.8-3.7-4.1c0-2.3,0.9-3.8,1.6-5.3c1.5-3.1,1.8-3.5,2.1-3.5c0.3,0,0.6,0.4,2.1,3.5
		c0.7,1.5,1.6,3,1.6,5.3S86.4,85,84.4,85"/>
</g>
</svg>
