<svg width="244" height="47" viewBox="0 0 244 47" fill="none" xmlns="http://www.w3.org/2000/svg">
<rect x="1.68848" y="5.91003" width="35.1788" height="35.1788" rx="17.5894" fill="white"/>
<g clip-path="url(#clip0)">
<path d="M23.1759 29.9917H22.7318C23.0735 29.9917 23.382 30.1308 23.6055 30.3571C23.8295 30.583 23.9676 30.8952 23.9676 31.24C23.9676 31.9301 23.4143 32.4888 22.7318 32.4888H22.2882C22.629 32.4888 22.9388 32.6288 23.1619 32.8542C23.3854 33.0801 23.5235 33.3932 23.5235 33.7376C23.5235 34.4277 22.9706 34.9864 22.2882 34.9864H14.9925L13.1987 34.0665L11.5078 31.3925L12.4899 27.3361L12.7699 26.1783L16.9915 23.6048C17.722 23.1603 18.659 23.275 19.262 23.8848L21.6728 24.9957H22.7322C23.0739 24.9957 23.3824 25.1357 23.606 25.3611C23.8299 25.5875 23.968 25.8992 23.968 26.244C23.968 26.9341 23.4147 27.4933 22.7322 27.4933H23.1763C23.8588 27.4933 24.4117 28.0519 24.4117 28.7416C24.4113 29.4326 23.8584 29.9917 23.1759 29.9917Z" fill="#FDDCCE"/>
<path d="M20.1157 24.748C19.822 24.9056 19.429 24.9966 18.9228 24.9966C15.1131 24.9966 13.5033 27.4474 13.5033 28.5656L12.4902 27.3366L12.7703 26.1788L16.9918 23.6053C17.7223 23.1608 18.6594 23.2755 19.2624 23.8853L20.1157 24.748Z" fill="#FBCBBF"/>
<path d="M18.9229 19.249H21.6732V24.9965H18.9229V19.249Z" fill="#FFC107"/>
<path d="M18.9229 19.249H19.9049V24.9965H18.9229V19.249Z" fill="#DCA604"/>
<path d="M23.5249 33.7379C23.5249 34.428 22.9711 34.9867 22.2891 34.9867H14.993C14.2561 34.9867 13.6034 34.6247 13.1992 34.0669H22.2891C22.8109 34.0669 23.2567 33.7401 23.4377 33.278C23.4382 33.2797 23.4394 33.281 23.4403 33.2823C23.4947 33.4232 23.5249 33.5769 23.5249 33.7379Z" fill="#FBCBBF"/>
<path d="M23.8809 30.7802C23.9366 30.9227 23.9676 31.0777 23.9676 31.2401C23.9676 31.9302 23.4143 32.4893 22.7322 32.4893H22.2588C22.0073 32.4893 21.8037 32.2831 21.8037 32.0294C21.8037 31.7751 22.0077 31.5694 22.2588 31.5694H22.7322C23.2537 31.5694 23.6994 31.2426 23.8809 30.7802Z" fill="#FBCBBF"/>
<path d="M24.3252 28.2825C24.3809 28.4251 24.4119 28.5801 24.4119 28.7424C24.4119 29.4325 23.8586 29.9916 23.1766 29.9916H22.7032C22.4516 29.9916 22.248 29.7855 22.248 29.5317C22.248 29.2775 22.452 29.0718 22.7032 29.0718H23.1766C23.6984 29.0718 24.1442 28.745 24.3252 28.2825Z" fill="#FBCBBF"/>
<path d="M23.8819 25.785C23.9375 25.9275 23.9686 26.0826 23.9686 26.2449C23.9686 26.935 23.4153 27.4941 22.7332 27.4941H22.2598C22.0082 27.4941 21.8047 27.288 21.8047 27.0342C21.8047 26.78 22.0087 26.5743 22.2598 26.5743H22.7332C23.2551 26.5743 23.7008 26.2475 23.8819 25.785Z" fill="#FBCBBF"/>
<path d="M10 26.2213V34.009C10 34.5488 10.433 34.9868 10.9676 34.9868H12.8757C13.4103 34.9868 13.8433 34.5488 13.8433 34.009V26.2213C13.8433 25.6811 13.4099 25.2435 12.8757 25.2435H10.9676C10.433 25.243 10 25.6811 10 26.2213Z" fill="#00B3FF"/>
<path opacity="0.5" d="M10 31.556V34.0094C10 34.5491 10.4335 34.9867 10.9681 34.9867H12.8761C13.4107 34.9867 13.8438 34.5491 13.8438 34.0089V31.5556C13.8438 32.0958 13.4107 32.5338 12.8761 32.5338H10.9681C10.4335 32.5343 10 32.0958 10 31.556Z" fill="#2D9CDB"/>
<path d="M20.3145 23.9461C23.3058 23.9461 25.7306 21.4958 25.7306 18.4731C25.7306 15.4504 23.3058 13 20.3145 13C17.3233 13 14.8984 15.4504 14.8984 18.4731C14.8984 21.4958 17.3233 23.9461 20.3145 23.9461Z" fill="#FFC107"/>
<path d="M20.926 23.9118C20.7255 23.935 20.5211 23.9461 20.3145 23.9461C17.3233 23.9461 14.8984 21.4958 14.8984 18.4731C14.898 15.4507 17.3233 13 20.3145 13C20.5211 13 20.7255 13.0116 20.926 13.0344C18.2229 13.3418 16.1215 15.6595 16.1215 18.4731C16.1215 21.2871 18.2229 23.6047 20.926 23.9118Z" fill="#DCA604"/>
<path d="M14.0738 14.8964L14.0194 14.9917C13.8277 15.3275 13.4113 15.4559 13.0666 15.2854L12.0068 14.7611C11.6273 14.5735 11.4841 14.0998 11.6957 13.7301L11.8309 13.4934C12.0421 13.1237 12.5193 13.0116 12.8703 13.2504L13.8494 13.916C14.1677 14.132 14.2659 14.5606 14.0738 14.8964Z" fill="#FFC107"/>
<path d="M26.5548 22.0498L26.6092 21.9544C26.8008 21.6186 27.2173 21.4902 27.5619 21.6607L28.6218 22.185C29.0013 22.3727 29.1445 22.8464 28.9329 23.2161L28.7977 23.4527C28.5865 23.8225 28.1093 23.9341 27.7583 23.6958L26.7792 23.0302C26.4613 22.8137 26.3631 22.3852 26.5548 22.0498Z" fill="#FFC107"/>
<path d="M13.1109 18.4181V18.528C13.1109 18.9158 12.8139 19.237 12.431 19.2636L11.2534 19.3452C10.8319 19.3744 10.4736 19.0365 10.4736 18.6096V18.3365C10.4736 17.9092 10.8314 17.5717 11.2534 17.6009L12.431 17.6825C12.8135 17.7087 13.1109 18.0303 13.1109 18.4181Z" fill="#FFC107"/>
<path d="M27.5176 18.528V18.4181C27.5176 18.0303 27.8146 17.7091 28.1975 17.6825L29.3751 17.6009C29.7966 17.5717 30.1549 17.9096 30.1549 18.3365V18.6096C30.1549 19.0369 29.7971 19.3744 29.3751 19.3452L28.1975 19.2636C27.8146 19.237 27.5176 18.9158 27.5176 18.528Z" fill="#FFC107"/>
<path d="M14.0187 21.9544L14.0731 22.0498C14.2647 22.3856 14.1665 22.8141 13.8483 23.0306L12.8691 23.6962C12.5186 23.9345 12.0413 23.8229 11.8297 23.4531L11.6946 23.2165C11.4834 22.8468 11.6261 22.3731 12.0056 22.1855L13.0655 21.6611C13.4105 21.4902 13.827 21.6186 14.0187 21.9544Z" fill="#FFC107"/>
<path d="M26.6092 14.9917L26.5548 14.8964C26.3631 14.5606 26.4613 14.132 26.7796 13.9156L27.7587 13.2499C28.1093 13.0116 28.5865 13.1233 28.7981 13.493L28.9333 13.7296C29.1445 14.0994 29.0017 14.573 28.6222 14.7607L27.5623 15.285C27.2173 15.4555 26.8008 15.3275 26.6092 14.9917Z" fill="#FFC107"/>
<path d="M17.7091 19.5803C17.7091 19.7615 17.6872 19.9055 17.6428 20.012C17.5985 20.1185 17.538 20.1927 17.4612 20.2341C17.384 20.2755 17.2824 20.2962 17.1566 20.2962C16.9706 20.2962 16.8362 20.2461 16.7528 20.1459C16.6693 20.0457 16.626 19.8684 16.6231 19.6141L16.6136 17.8533H16.2122C16.0138 17.8533 15.8651 17.8215 15.7659 17.7579C15.6668 17.6943 15.6172 17.5811 15.6172 17.4192C15.6172 17.3204 15.6367 17.2424 15.6763 17.1855C15.7159 17.1282 15.7745 17.0878 15.8532 17.0637C15.9318 17.0396 16.0372 17.028 16.1697 17.028H18.1911C18.3675 17.028 18.4948 17.0598 18.5734 17.1234C18.6521 17.187 18.6917 17.2968 18.6917 17.4524C18.6917 17.5575 18.6688 17.6394 18.623 17.6981C18.5773 17.7569 18.5167 17.7974 18.4414 17.82C18.3661 17.8427 18.2683 17.8533 18.1487 17.8533H17.7096V19.5803H17.7091Z" fill="white"/>
<path d="M19.7732 20.2962C19.6283 20.2928 19.512 20.2701 19.4238 20.2268C19.3356 20.1839 19.2693 20.1131 19.2254 20.0143C19.1811 19.9156 19.1592 19.7836 19.1592 19.6183V17.5998C19.1592 17.4312 19.2078 17.2939 19.3055 17.1869C19.4033 17.0805 19.532 17.027 19.6927 17.027C19.8814 17.027 20.0206 17.0621 20.1108 17.132C20.2004 17.2019 20.2452 17.3435 20.2452 17.5569V19.4704H21.0528C21.2354 19.4704 21.3636 19.4974 21.4375 19.5514C21.5114 19.6053 21.5486 19.7166 21.5486 19.8852C21.5486 20.0572 21.5062 20.1685 21.4213 20.2191C21.3364 20.2701 21.1977 20.2952 21.0056 20.2952H19.7732V20.2962Z" fill="white"/>
<path d="M23.6402 17.9245C23.6402 17.8575 23.6126 17.8002 23.5578 17.7525C23.5025 17.7048 23.4371 17.6807 23.3618 17.6807C23.2107 17.6807 23.0863 17.7674 22.9885 17.9408C22.8908 18.1143 22.8422 18.3108 22.8422 18.53C22.8422 18.6986 22.8736 18.8504 22.9366 18.9858C22.9995 19.1211 23.091 19.2286 23.2107 19.308C23.3303 19.3875 23.4686 19.4275 23.6264 19.4275C23.7427 19.4275 23.8548 19.4044 23.9616 19.3582C24.0683 19.3119 24.1551 19.2613 24.2214 19.2054C24.2876 19.1496 24.3558 19.099 24.4268 19.0527C24.4979 19.0065 24.5599 18.9833 24.6133 18.9833C24.6824 18.9833 24.7424 19.0113 24.7925 19.0667C24.843 19.1226 24.8678 19.1804 24.8678 19.2411C24.8678 19.308 24.8483 19.3861 24.8087 19.4747C24.7691 19.5639 24.7072 19.6583 24.6223 19.7585C24.5375 19.8587 24.4383 19.9512 24.3248 20.0355C24.2114 20.1198 24.0707 20.1897 23.902 20.2455C23.7337 20.3009 23.5563 20.3289 23.3709 20.3289C23.1254 20.3289 22.8979 20.2913 22.6887 20.2166C22.4794 20.142 22.2973 20.0355 22.1433 19.8968C21.9888 19.7585 21.8677 19.5841 21.7795 19.374C21.6913 19.164 21.6475 18.9284 21.6475 18.6678C21.6475 18.1523 21.8 17.7452 22.1056 17.4461C22.4107 17.1469 22.8107 16.9976 23.3051 16.9976C23.5568 16.9976 23.7899 17.0404 24.004 17.1262C24.218 17.2119 24.3882 17.3314 24.5141 17.4841C24.64 17.6368 24.7029 17.804 24.7029 17.9852C24.7029 18.1952 24.6338 18.3855 24.495 18.5555C24.3563 18.7256 24.177 18.8109 23.9568 18.8109C23.8309 18.8109 23.7175 18.7757 23.6169 18.7059C23.5163 18.636 23.4657 18.5358 23.4657 18.4052C23.4657 18.345 23.4948 18.2607 23.553 18.1523C23.6111 18.0454 23.6402 17.9693 23.6402 17.9245Z" fill="white"/>
</g>
<g clip-path="url(#clip1)">
<path d="M49.0891 12.6743V17.5478H52.8966V21.4685H49.0891V27.6624C49.0891 29.7232 49.5979 30.6704 51.1758 30.6704C51.8561 30.6704 52.382 30.5958 52.7479 30.5096L52.7879 34.5451C52.1076 34.792 50.8442 35.0044 49.3578 35.0044C47.6484 35.0044 46.2192 34.4074 45.3674 33.5234C44.3841 32.513 43.9038 30.8828 43.9038 28.4603V21.4685H41.6514V17.5478H43.9153V13.874L49.0891 12.6743Z" fill="white"/>
<path d="M65.6335 34.637L65.3191 32.9379H65.2048C64.0957 34.2983 62.3577 35.0216 60.3454 35.0216C56.8809 35.0216 54.8457 32.5246 54.8457 29.7921C54.8457 25.3376 58.8132 23.2309 64.8332 23.2366V23.0185C64.8332 22.1115 64.3472 20.8142 61.7174 20.8199C59.9852 20.8199 58.1615 21.4112 57.0296 22.0943L56.0577 18.696C57.2411 18.0128 59.5622 17.1633 62.6722 17.1633C68.3376 17.1633 70.127 20.5271 70.127 24.5397V30.4982C70.127 32.1285 70.2128 33.6784 70.3957 34.637H65.6335ZM64.9875 26.5545C62.2034 26.5373 60.0538 27.2147 60.0538 29.2468C60.0538 30.6245 60.9514 31.2904 62.1519 31.2904C63.444 31.2904 64.5416 30.4236 64.8903 29.3272C64.9704 29.0516 64.9875 28.7244 64.9875 28.4202V26.5545Z" fill="white"/>
<path d="M74.3062 23.007C74.3062 20.8773 74.2375 19.0806 74.1689 17.5479H78.7596L79.0055 19.9129H79.1141C79.8001 18.8108 81.5323 17.1633 84.3737 17.1633C87.8496 17.1633 90.4622 19.4939 90.4622 24.5225V34.637H85.1626V25.1654C85.1626 22.9668 84.3794 21.4571 82.4699 21.4571C81.0121 21.4571 80.1546 22.4789 79.7887 23.4662C79.6515 23.7992 79.6057 24.3043 79.6057 24.7808V34.6428H74.3062V23.007Z" fill="white"/>
<path d="M110.929 17.5479C110.849 18.6501 110.781 20.0967 110.781 22.6397V32.1515C110.781 35.435 110.123 38.1215 108.191 39.8379C106.327 41.4624 103.795 41.9389 101.291 41.9389C99.0439 41.9389 96.6942 41.4796 95.1735 40.6301L96.2254 36.606C97.2945 37.2203 99.1639 37.8861 101.153 37.8861C103.657 37.8861 105.567 36.5429 105.567 33.3857V32.2893H105.498C104.498 33.6899 102.863 34.4936 100.908 34.4936C96.7114 34.4936 93.71 31.0666 93.71 26.1757C93.71 20.665 97.243 17.1748 101.422 17.1748C103.76 17.1748 105.218 18.1966 106.081 19.603H106.15L106.327 17.5594H110.929V17.5479ZM105.493 24.5168C105.493 24.1781 105.458 23.8222 105.384 23.5352C105.018 22.1288 104.006 21.1816 102.537 21.1816C100.61 21.1816 99.0782 22.9496 99.0782 26.0437C99.0782 28.5867 100.33 30.5786 102.531 30.5786C103.898 30.5786 104.989 29.6716 105.338 28.4317C105.453 28.0241 105.493 27.4673 105.493 27.0253V24.5168Z" fill="white"/>
<path d="M115.022 9.85004H120.322V34.637H115.022V9.85004Z" fill="white"/>
<path d="M130.03 12.8064C130.035 14.2874 128.949 15.4584 127.188 15.4584C125.513 15.4584 124.427 14.2817 124.433 12.8064C124.427 11.2852 125.536 10.1486 127.234 10.1486C128.943 10.1428 130.012 11.2794 130.03 12.8064ZM124.581 34.6371V17.5479H129.881V34.6371H124.581Z" fill="white"/>
<path d="M139.399 24.7693H139.468C139.862 24.046 140.28 23.3457 140.691 22.7143L144.144 17.5536H150.49L144.39 24.488L151.353 34.6428H144.853L140.737 27.6223L139.399 29.3157V34.6428H134.105V9.85004H139.399V24.7693Z" fill="white"/>
<path d="M156.544 27.8003C156.704 30.0046 158.871 31.0493 161.341 31.0493C163.13 31.0493 164.594 30.8082 166.023 30.326L166.738 33.9195C164.977 34.6428 162.856 34.9987 160.575 34.9987C154.812 34.9987 151.502 31.6291 151.502 26.302C151.502 21.9623 154.2 17.1576 160.077 17.1576C165.594 17.1576 167.675 21.4629 167.675 25.6878C167.675 26.612 167.578 27.3985 167.486 27.7888H156.544V27.8003ZM162.759 24.1609C162.77 22.8808 162.198 20.6994 159.792 20.6994C157.556 20.6994 156.653 22.7487 156.504 24.1609H162.759Z" fill="white"/>
<path d="M183.597 34.2123C182.642 34.6543 180.87 35.0045 178.858 35.0045C173.358 35.0045 169.854 31.6234 169.854 26.2561C169.854 21.262 173.255 17.1748 179.584 17.1748C180.984 17.1748 182.517 17.4274 183.62 17.8464L182.797 21.7901C182.156 21.5031 181.23 21.2447 179.835 21.2447C177.04 21.2447 175.245 23.2367 175.262 26.0322C175.262 29.1722 177.36 30.8369 179.921 30.8369C181.184 30.8369 182.156 30.6131 182.968 30.2801L183.597 34.2123Z" fill="white"/>
<path d="M186.507 9.85004H191.806V19.6087H191.875C192.43 18.8625 193.104 18.2942 193.945 17.8464C194.728 17.4159 195.717 17.169 196.7 17.169C200.079 17.169 202.663 19.5169 202.663 24.6717V34.6428H197.363V25.2515C197.363 23.0013 196.591 21.4628 194.631 21.4628C193.219 21.4628 192.355 22.3698 191.978 23.34C191.846 23.6557 191.806 24.1149 191.806 24.4995V34.637H186.507V9.85004Z" fill="white"/>
<path d="M210.964 27.8003C211.124 30.0046 213.291 31.0493 215.761 31.0493C217.55 31.0493 219.014 30.8082 220.443 30.326L221.157 33.9195C219.397 34.6428 217.276 34.9987 214.989 34.9987C209.226 34.9987 205.916 31.6291 205.916 26.302C205.916 21.9623 208.614 17.1576 214.491 17.1576C220.008 17.1576 222.089 21.4629 222.089 25.6878C222.089 26.612 221.992 27.3985 221.901 27.7888H210.964V27.8003ZM217.173 24.1609C217.184 22.8808 216.612 20.6994 214.206 20.6994C211.97 20.6994 211.067 22.7487 210.918 24.1609H217.173Z" fill="white"/>
<path d="M242.029 25.9231C242.029 32.1686 237.621 35.0216 233.059 35.0216C228.109 35.0216 224.272 31.7324 224.272 26.2159C224.272 20.6993 227.897 17.1633 233.362 17.1633C238.565 17.1633 242.029 20.7625 242.029 25.9231ZM229.726 26.0953C229.726 29.0114 230.956 31.2215 233.208 31.2215C235.272 31.2215 236.575 29.1492 236.575 26.0666C236.575 23.5466 235.609 20.9577 233.214 20.9577C230.687 20.9634 229.726 23.5638 229.726 26.0953Z" fill="white"/>
</g>
<defs>
<clipPath id="clip0">
<rect width="20.1545" height="21.9867" fill="white" transform="translate(10 13)"/>
</clipPath>
<clipPath id="clip1">
<rect width="200.378" height="32.083" fill="white" transform="translate(41.6514 9.85004)"/>
</clipPath>
</defs>
</svg>
