<svg width="244" height="47" viewBox="0 0 244 47" fill="none" xmlns="http://www.w3.org/2000/svg">
<rect x="1.6886" y="5.91016" width="35.1788" height="35.1788" rx="17.5894" fill="#003A87"/>
<g clip-path="url(#clip0)">
<path d="M23.2931 29.8643H22.849C23.1907 29.8643 23.4992 30.0034 23.7227 30.2297C23.9467 30.4556 24.0848 30.7678 24.0848 31.1126C24.0848 31.8027 23.5315 32.3614 22.849 32.3614H22.4053C22.7462 32.3614 23.056 32.5014 23.2791 32.7269C23.5026 32.9527 23.6407 33.2658 23.6407 33.6102C23.6407 34.3003 23.0878 34.859 22.4053 34.859H15.1097L13.3159 33.9391L11.625 31.2651L12.6071 27.2087L12.8871 26.051L17.1087 23.4774C17.8392 23.0329 18.7762 23.1476 19.3792 23.7574L21.79 24.8683H22.8494C23.1911 24.8683 23.4996 25.0083 23.7231 25.2338C23.9471 25.4601 24.0852 25.7718 24.0852 26.1167C24.0852 26.8068 23.5319 27.3659 22.8494 27.3659H23.2935C23.976 27.3659 24.5289 27.9246 24.5289 28.6142C24.5284 29.3052 23.9756 29.8643 23.2931 29.8643Z" fill="#FDDCCE"/>
<path d="M20.2325 24.6206C19.9389 24.7782 19.5458 24.8692 19.0396 24.8692C15.2299 24.8692 13.6202 27.32 13.6202 28.4382L12.6071 27.2092L12.8871 26.0514L17.1086 23.4779C17.8391 23.0334 18.7762 23.1481 19.3792 23.7579L20.2325 24.6206Z" fill="#FBCBBF"/>
<path d="M19.0397 19.1216H21.79V24.8691H19.0397V19.1216Z" fill="#FFC107"/>
<path d="M19.0397 19.1216H20.0218V24.8691H19.0397V19.1216Z" fill="#DCA604"/>
<path d="M23.6416 33.6106C23.6416 34.3007 23.0878 34.8593 22.4058 34.8593H15.1097C14.3728 34.8593 13.7201 34.4973 13.3159 33.9395H22.4058C22.9276 33.9395 23.3734 33.6127 23.5544 33.1506C23.5549 33.1524 23.5561 33.1536 23.557 33.1549C23.6114 33.2958 23.6416 33.4495 23.6416 33.6106Z" fill="#FBCBBF"/>
<path d="M23.9981 30.6526C24.0538 30.7952 24.0848 30.9502 24.0848 31.1125C24.0848 31.8026 23.5315 32.3617 22.8494 32.3617H22.376C22.1245 32.3617 21.9209 32.1556 21.9209 31.9018C21.9209 31.6476 22.1249 31.4419 22.376 31.4419H22.8494C23.3709 31.4419 23.8166 31.1151 23.9981 30.6526Z" fill="#FBCBBF"/>
<path d="M24.4418 28.155C24.4975 28.2976 24.5285 28.4526 24.5285 28.6149C24.5285 29.305 23.9752 29.8641 23.2932 29.8641H22.8198C22.5682 29.8641 22.3646 29.658 22.3646 29.4042C22.3646 29.15 22.5686 28.9443 22.8198 28.9443H23.2932C23.815 28.9443 24.2608 28.6175 24.4418 28.155Z" fill="#FBCBBF"/>
<path d="M23.9986 25.6575C24.0543 25.8 24.0853 25.9551 24.0853 26.1174C24.0853 26.8075 23.532 27.3666 22.8499 27.3666H22.3765C22.1249 27.3666 21.9214 27.1605 21.9214 26.9067C21.9214 26.6525 22.1254 26.4468 22.3765 26.4468H22.8499C23.3718 26.4468 23.8175 26.12 23.9986 25.6575Z" fill="#FBCBBF"/>
<path d="M10.1172 26.0938V33.8815C10.1172 34.4213 10.5502 34.8593 11.0848 34.8593H12.9929C13.5275 34.8593 13.9605 34.4213 13.9605 33.8815V26.0938C13.9605 25.5536 13.5271 25.116 12.9929 25.116H11.0848C10.5502 25.1155 10.1172 25.5536 10.1172 26.0938Z" fill="#00B3FF"/>
<path opacity="0.5" d="M10.1168 31.4287V33.882C10.1168 34.4218 10.5503 34.8594 11.0849 34.8594H12.9929C13.5275 34.8594 13.9606 34.4218 13.9606 33.8815V31.4282C13.9606 31.9684 13.5275 32.4065 12.9929 32.4065H11.0849C10.5503 32.4069 10.1168 31.9684 10.1168 31.4287Z" fill="#2D9CDB"/>
<path d="M20.431 23.8187C23.4222 23.8187 25.8471 21.3683 25.8471 18.3456C25.8471 15.3229 23.4222 12.8726 20.431 12.8726C17.4398 12.8726 15.0149 15.3229 15.0149 18.3456C15.0149 21.3683 17.4398 23.8187 20.431 23.8187Z" fill="#FFC107"/>
<path d="M21.0429 23.7843C20.8423 23.8075 20.6379 23.8187 20.4314 23.8187C17.4401 23.8187 15.0153 21.3684 15.0153 18.3456C15.0148 15.3233 17.4401 12.8726 20.4314 12.8726C20.6379 12.8726 20.8423 12.8842 21.0429 12.9069C18.3397 13.2144 16.2383 15.532 16.2383 18.3456C16.2383 21.1597 18.3397 23.4773 21.0429 23.7843Z" fill="#DCA604"/>
<path d="M14.1905 14.7689L14.1361 14.8642C13.9444 15.2 13.528 15.3284 13.1833 15.1579L12.1235 14.6336C11.744 14.4459 11.6008 13.9723 11.8124 13.6026L11.9476 13.3659C12.1588 12.9962 12.636 12.8841 12.987 13.1229L13.9661 13.7885C14.2844 14.0045 14.3826 14.4331 14.1905 14.7689Z" fill="#F2F4F6"/>
<path d="M26.6715 21.9223L26.7259 21.8269C26.9175 21.4911 27.334 21.3627 27.6786 21.5332L28.7385 22.0575C29.118 22.2452 29.2612 22.7189 29.0496 23.0886L28.9144 23.3252C28.7032 23.695 28.226 23.8066 27.875 23.5683L26.8959 22.9027C26.578 22.6862 26.4798 22.2577 26.6715 21.9223Z" fill="#F2F4F6"/>
<path d="M13.228 18.2906V18.4006C13.228 18.7884 12.9309 19.1096 12.5481 19.1362L11.3705 19.2178C10.9489 19.247 10.5907 18.909 10.5907 18.4822V18.2091C10.5907 17.7818 10.9485 17.4442 11.3705 17.4734L12.5481 17.555C12.9305 17.5812 13.228 17.9029 13.228 18.2906Z" fill="#F2F4F6"/>
<path d="M27.6345 18.4006V18.2906C27.6345 17.9029 27.9316 17.5817 28.3145 17.555L29.492 17.4734C29.9136 17.4442 30.2718 17.7822 30.2718 18.2091V18.4822C30.2718 18.9094 29.914 19.247 29.492 19.2178L28.3145 19.1362C27.9316 19.1096 27.6345 18.7884 27.6345 18.4006Z" fill="#F2F4F6"/>
<path d="M14.1361 21.8268L14.1905 21.9221C14.3821 22.2579 14.284 22.6865 13.9657 22.9029L12.9866 23.5686C12.636 23.8069 12.1588 23.6952 11.9471 23.3255L11.812 23.0889C11.6008 22.7192 11.7436 22.2455 12.1231 22.0578L13.1829 21.5335C13.528 21.3626 13.9444 21.491 14.1361 21.8268Z" fill="#F2F4F6"/>
<path d="M26.726 14.8642L26.6716 14.7689C26.4799 14.4331 26.5781 14.0045 26.8964 13.7881L27.8755 13.1224C28.2261 12.8841 28.7033 12.9958 28.9149 13.3655L29.0501 13.6021C29.2613 13.9719 29.1185 14.4455 28.739 14.6332L27.6792 15.1575C27.3341 15.328 26.9176 15.2 26.726 14.8642Z" fill="#F2F4F6"/>
<path d="M17.8256 19.453C17.8256 19.6341 17.8036 19.7781 17.7593 19.8846C17.715 19.9911 17.6544 20.0653 17.5777 20.1067C17.5004 20.1481 17.3989 20.1689 17.273 20.1689C17.0871 20.1689 16.9527 20.1187 16.8692 20.0185C16.7858 19.9183 16.7424 19.7411 16.7396 19.4867L16.73 17.7259H16.3286C16.1303 17.7259 15.9815 17.6941 15.8824 17.6305C15.7832 17.5669 15.7336 17.4537 15.7336 17.2918C15.7336 17.1931 15.7532 17.115 15.7928 17.0582C15.8323 17.0008 15.891 16.9604 15.9696 16.9363C16.0483 16.9122 16.1536 16.9006 16.2862 16.9006H18.3076C18.4839 16.9006 18.6112 16.9324 18.6899 16.996C18.7686 17.0596 18.8081 17.1695 18.8081 17.3251C18.8081 17.4301 18.7852 17.512 18.7395 17.5708C18.6937 17.6295 18.6332 17.67 18.5578 17.6926C18.4825 17.7153 18.3848 17.7259 18.2651 17.7259H17.826V19.453H17.8256Z" fill="#F2F4F6"/>
<path d="M19.8893 20.1686C19.7444 20.1652 19.6281 20.1426 19.5399 20.0992C19.4517 20.0563 19.3854 19.9855 19.3415 19.8868C19.2972 19.788 19.2753 19.656 19.2753 19.4908V17.4722C19.2753 17.3036 19.3239 17.1663 19.4216 17.0594C19.5194 16.9529 19.6481 16.8994 19.8087 16.8994C19.9975 16.8994 20.1367 16.9346 20.2268 17.0044C20.3165 17.0743 20.3613 17.2159 20.3613 17.4293V19.3429H21.1689C21.3515 19.3429 21.4797 19.3698 21.5536 19.4238C21.6275 19.4778 21.6647 19.589 21.6647 19.7577C21.6647 19.9296 21.6223 20.0409 21.5374 20.0915C21.4525 20.1426 21.3138 20.1676 21.1217 20.1676H19.8893V20.1686Z" fill="#F2F4F6"/>
<path d="M23.7572 17.797C23.7572 17.73 23.7295 17.6727 23.6747 17.625C23.6194 17.5773 23.5541 17.5532 23.4788 17.5532C23.3276 17.5532 23.2032 17.64 23.1055 17.8134C23.0077 17.9868 22.9591 18.1834 22.9591 18.4026C22.9591 18.5712 22.9906 18.7229 23.0535 18.8583C23.1164 18.9937 23.208 19.1011 23.3276 19.1806C23.4473 19.2601 23.5855 19.3001 23.7433 19.3001C23.8597 19.3001 23.9717 19.277 24.0785 19.2307C24.1853 19.1845 24.272 19.1339 24.3383 19.078C24.4046 19.0221 24.4728 18.9715 24.5438 18.9253C24.6148 18.879 24.6768 18.8559 24.7302 18.8559C24.7993 18.8559 24.8594 18.8838 24.9094 18.9392C24.96 18.9951 24.9848 19.0529 24.9848 19.1136C24.9848 19.1806 24.9652 19.2587 24.9257 19.3473C24.8861 19.4364 24.8241 19.5308 24.7393 19.631C24.6544 19.7313 24.5552 19.8237 24.4418 19.9081C24.3283 19.9924 24.1877 20.0622 24.0189 20.1181C23.8506 20.1735 23.6733 20.2014 23.4878 20.2014C23.2423 20.2014 23.0149 20.1639 22.8056 20.0892C22.5963 20.0145 22.4142 19.9081 22.2602 19.7693C22.1057 19.631 21.9847 19.4567 21.8965 19.2466C21.8083 19.0366 21.7644 18.801 21.7644 18.5404C21.7644 18.0249 21.917 17.6178 22.2225 17.3186C22.5277 17.0195 22.9276 16.8701 23.422 16.8701C23.6737 16.8701 23.9069 16.913 24.1209 16.9987C24.335 17.0845 24.5052 17.204 24.631 17.3567C24.7569 17.5094 24.8198 17.6766 24.8198 17.8577C24.8198 18.0678 24.7507 18.258 24.612 18.4281C24.4732 18.5982 24.294 18.6834 24.0737 18.6834C23.9479 18.6834 23.8344 18.6483 23.7338 18.5784C23.6332 18.5086 23.5827 18.4084 23.5827 18.2778C23.5827 18.2176 23.6118 18.1333 23.6699 18.0249C23.7281 17.9179 23.7572 17.8418 23.7572 17.797Z" fill="#F2F4F6"/>
</g>
<g clip-path="url(#clip1)">
<path d="M49.0893 12.6743V17.5479H52.8968V21.4686H49.0893V27.6625C49.0893 29.7233 49.5981 30.6704 51.176 30.6704C51.8563 30.6704 52.3823 30.5958 52.7482 30.5097L52.7882 34.5452C52.1079 34.792 50.8444 35.0044 49.358 35.0044C47.6487 35.0044 46.2194 34.4074 45.3676 33.5234C44.3843 32.5131 43.9041 30.8828 43.9041 28.4604V21.4686H41.6516V17.5479H43.9155V13.8741L49.0893 12.6743Z" fill="#002347"/>
<path d="M65.6342 34.6371L65.3197 32.9379H65.2054C64.0963 34.2984 62.3584 35.0217 60.346 35.0217C56.8815 35.0217 54.8463 32.5246 54.8463 29.7922C54.8463 25.3376 58.8139 23.2309 64.8338 23.2367V23.0185C64.8338 22.1115 64.3478 20.8142 61.7181 20.82C59.9858 20.82 58.1621 21.4112 57.0302 22.0943L56.0583 18.696C57.2417 18.0129 59.5628 17.1633 62.6728 17.1633C68.3383 17.1633 70.1277 20.5272 70.1277 24.5397V30.4983C70.1277 32.1285 70.2134 33.6784 70.3964 34.6371H65.6342ZM64.9881 26.5546C62.204 26.5374 60.0544 27.2148 60.0544 29.2469C60.0544 30.6245 60.952 31.2904 62.1525 31.2904C63.4446 31.2904 64.5422 30.4236 64.891 29.3272C64.971 29.0517 64.9881 28.7245 64.9881 28.4202V26.5546Z" fill="#002347"/>
<path d="M74.3066 23.007C74.3066 20.8774 74.238 19.0806 74.1694 17.5479H78.7601L79.006 19.913H79.1146C79.8006 18.8108 81.5328 17.1633 84.3742 17.1633C87.85 17.1633 90.4627 19.4939 90.4627 24.5225V34.6371H85.1631V25.1654C85.1631 22.9669 84.3799 21.4571 82.4704 21.4571C81.0126 21.4571 80.1551 22.4789 79.7892 23.4663C79.652 23.7992 79.6062 24.3044 79.6062 24.7808V34.6428H74.3066V23.007Z" fill="#002347"/>
<path d="M110.929 17.5479C110.849 18.6501 110.781 20.0967 110.781 22.6397V32.1515C110.781 35.435 110.123 38.1215 108.191 39.8379C106.327 41.4624 103.795 41.9389 101.291 41.9389C99.0439 41.9389 96.6942 41.4796 95.1735 40.6301L96.2254 36.606C97.2945 37.2203 99.1639 37.8861 101.153 37.8861C103.657 37.8861 105.567 36.5429 105.567 33.3857V32.2893H105.498C104.498 33.6899 102.863 34.4936 100.908 34.4936C96.7113 34.4936 93.71 31.0666 93.71 26.1757C93.71 20.665 97.243 17.1748 101.422 17.1748C103.76 17.1748 105.218 18.1966 106.081 19.603H106.15L106.327 17.5594H110.929V17.5479ZM105.493 24.5168C105.493 24.1781 105.458 23.8222 105.384 23.5352C105.018 22.1288 104.006 21.1816 102.537 21.1816C100.61 21.1816 99.0782 22.9496 99.0782 26.0437C99.0782 28.5867 100.33 30.5786 102.531 30.5786C103.898 30.5786 104.989 29.6716 105.338 28.4317C105.453 28.0241 105.493 27.4673 105.493 27.0253V24.5168Z" fill="#002347"/>
<path d="M115.023 9.8501H120.322V34.6371H115.023V9.8501Z" fill="#002347"/>
<path d="M130.03 12.8065C130.035 14.2875 128.949 15.4586 127.188 15.4586C125.513 15.4586 124.427 14.2818 124.433 12.8065C124.427 11.2853 125.536 10.1487 127.234 10.1487C128.943 10.143 130.012 11.2796 130.03 12.8065ZM124.581 34.6372V17.5481H129.881V34.6372H124.581Z" fill="#002347"/>
<path d="M139.4 24.7694H139.468C139.863 24.0461 140.28 23.3458 140.692 22.7143L144.145 17.5537H150.49L144.39 24.4881L151.354 34.6428H144.854L140.737 27.6223L139.4 29.3158V34.6428H134.106V9.8501H139.4V24.7694Z" fill="#002347"/>
<path d="M156.545 27.8004C156.705 30.0047 158.872 31.0495 161.341 31.0495C163.131 31.0495 164.594 30.8084 166.023 30.3262L166.738 33.9197C164.977 34.6429 162.856 34.9989 160.575 34.9989C154.813 34.9989 151.502 31.6292 151.502 26.3022C151.502 21.9624 154.201 17.1577 160.078 17.1577C165.595 17.1577 167.676 21.463 167.676 25.6879C167.676 26.6121 167.578 27.3986 167.487 27.7889H156.545V27.8004ZM162.759 24.161C162.771 22.8809 162.199 20.6995 159.792 20.6995C157.557 20.6995 156.653 22.7489 156.505 24.161H162.759Z" fill="#002347"/>
<path d="M183.597 34.2123C182.643 34.6543 180.87 35.0045 178.858 35.0045C173.358 35.0045 169.854 31.6234 169.854 26.2561C169.854 21.262 173.255 17.1748 179.584 17.1748C180.985 17.1748 182.517 17.4274 183.62 17.8464L182.797 21.7901C182.157 21.5031 181.23 21.2447 179.836 21.2447C177.04 21.2447 175.245 23.2367 175.262 26.0322C175.262 29.1722 177.36 30.8369 179.921 30.8369C181.185 30.8369 182.157 30.6131 182.968 30.2801L183.597 34.2123Z" fill="#002347"/>
<path d="M186.507 9.8501H191.807V19.6088H191.875C192.43 18.8625 193.105 18.2942 193.945 17.8465C194.728 17.4159 195.717 17.1691 196.7 17.1691C200.079 17.1691 202.663 19.5169 202.663 24.6718V34.6428H197.364V25.2516C197.364 23.0013 196.592 21.4629 194.631 21.4629C193.219 21.4629 192.356 22.3699 191.978 23.34C191.847 23.6557 191.807 24.115 191.807 24.4996V34.6371H186.507V9.8501Z" fill="#002347"/>
<path d="M210.964 27.8004C211.124 30.0047 213.291 31.0495 215.761 31.0495C217.55 31.0495 219.014 30.8084 220.443 30.3262L221.157 33.9197C219.397 34.6429 217.276 34.9989 214.989 34.9989C209.226 34.9989 205.916 31.6292 205.916 26.3022C205.916 21.9624 208.614 17.1577 214.491 17.1577C220.008 17.1577 222.089 21.463 222.089 25.6879C222.089 26.6121 221.992 27.3986 221.901 27.7889H210.964V27.8004ZM217.173 24.161C217.184 22.8809 216.612 20.6995 214.206 20.6995C211.97 20.6995 211.067 22.7489 210.918 24.161H217.173Z" fill="#002347"/>
<path d="M242.03 25.9232C242.03 32.1687 237.622 35.0217 233.06 35.0217C228.109 35.0217 224.273 31.7324 224.273 26.2159C224.273 20.6994 227.898 17.1633 233.363 17.1633C238.565 17.1633 242.03 20.7626 242.03 25.9232ZM229.727 26.0954C229.727 29.0115 230.956 31.2215 233.209 31.2215C235.272 31.2215 236.576 29.1493 236.576 26.0667C236.576 23.5466 235.61 20.9577 233.214 20.9577C230.687 20.9635 229.727 23.5639 229.727 26.0954Z" fill="#002347"/>
</g>
<defs>
<clipPath id="clip0">
<rect width="20.1545" height="21.9867" fill="white" transform="translate(10.1168 12.8726)"/>
</clipPath>
<clipPath id="clip1">
<rect width="200.378" height="32.083" fill="white" transform="translate(41.6516 9.8501)"/>
</clipPath>
</defs>
</svg>
