<?xml version="1.0" encoding="utf-8"?>
<svg version="1.1" id="Layer_1" xmlns="http://www.w3.org/2000/svg" xmlns:xlink="http://www.w3.org/1999/xlink" x="0px" y="0px"
	 viewBox="0 0 100 100" style="enable-background:new 0 0 100 100;" xml:space="preserve">
<style type="text/css">
	.st0{clip-path:url(#SVGID_2_);}
	.st1{fill:url(#SVGID_3_);}
	.st2{fill:url(#SVGID_4_);}
	.st3{fill:url(#SVGID_5_);}
	.st4{fill:#4E506A;}
	.st5{fill:url(#SVGID_6_);}
</style>
<g>
	<g>
		<defs>
			<rect id="SVGID_1_" width="100" height="100"/>
		</defs>
		<clipPath id="SVGID_2_">
			<use xlink:href="#SVGID_1_"  style="overflow:visible;"/>
		</clipPath>
		<g class="st0">
			
				<linearGradient id="SVGID_3_" gradientUnits="userSpaceOnUse" x1="50" y1="91.75" x2="50" y2="2" gradientTransform="matrix(1 0 0 -1 0 102)">
				<stop  offset="0" style="stop-color:#FEEA70"/>
				<stop  offset="1" style="stop-color:#F69B30"/>
			</linearGradient>
			<path class="st1" d="M100,50c0,13.3-5.3,26-14.6,35.4C76,94.7,63.3,100,50,100c-13.3,0-26-5.3-35.4-14.6C5.3,76,0,63.3,0,50
				c0-13.3,5.3-26,14.6-35.4C24,5.3,36.7,0,50,0c13.3,0,26,5.3,35.4,14.6C94.7,24,100,36.7,100,50"/>
			
				<linearGradient id="SVGID_4_" gradientUnits="userSpaceOnUse" x1="50.0006" y1="52" x2="50.0006" y2="14.5" gradientTransform="matrix(1 0 0 -1 0 102)">
				<stop  offset="0" style="stop-color:#472315"/>
				<stop  offset="1" style="stop-color:#8B3A0E"/>
			</linearGradient>
			<path class="st2" d="M35.3,68c-1,11.5,4.5,19.5,14.7,19.5c10.2,0,15.7-7.9,14.7-19.5c-1-11.5-7-18-14.7-18S36.3,56.5,35.3,68z"/>
			
				<linearGradient id="SVGID_5_" gradientUnits="userSpaceOnUse" x1="50" y1="77" x2="50" y2="58.25" gradientTransform="matrix(1 0 0 -1 0 102)">
				<stop  offset="0" style="stop-color:#191A33"/>
				<stop  offset="0.872" style="stop-color:#3B426A"/>
			</linearGradient>
			<path class="st3" d="M21.9,34.4c0-5.2,3.5-9.4,7.8-9.4s7.8,4.2,7.8,9.4c0,5.2-3.5,9.4-7.8,9.4S21.9,39.6,21.9,34.4z M62.5,34.4
				c0-5.2,3.5-9.4,7.8-9.4c4.3,0,7.8,4.2,7.8,9.4c0,5.2-3.5,9.4-7.8,9.4C66,43.8,62.5,39.6,62.5,34.4z"/>
			<path d="M21.9,34.4c0-5.2,3.5-9.4,7.8-9.4s7.8,4.2,7.8,9.4c0,5.2-3.5,9.4-7.8,9.4S21.9,39.6,21.9,34.4z M62.5,34.4
				c0-5.2,3.5-9.4,7.8-9.4c4.3,0,7.8,4.2,7.8,9.4c0,5.2-3.5,9.4-7.8,9.4C66,43.8,62.5,39.6,62.5,34.4z"/>
			<path class="st4" d="M28,28.5c1.2,0.3,1.8,1.6,1.5,2.9c-0.4,1.4-1.6,2.3-2.8,2c-1.2-0.3-1.8-1.6-1.4-2.9
				C25.6,29.2,26.8,28.3,28,28.5z M69.6,28.9c1.3,0.3,2,1.8,1.6,3.2c-0.4,1.5-1.8,2.5-3.1,2.2c-1.3-0.3-2-1.8-1.6-3.3
				C67,29.6,68.3,28.6,69.6,28.9L69.6,28.9z"/>
			<path d="M69.2,10.6c0.3,0,0.6,0,1,0c3,0,6.2,1.3,8.6,3.5c0.4,0.4,0.7,1,0.7,1.6c0,0.6-0.2,1.2-0.6,1.6c-0.2,0.2-0.4,0.4-0.7,0.5
				c-0.3,0.1-0.5,0.2-0.8,0.2c-0.3,0-0.6,0-0.9-0.1c-0.3-0.1-0.5-0.3-0.7-0.5c-1.7-1.6-4.1-2.5-6.2-2.3c-0.7,0.1-1.4,0.3-2.1,0.6
				c-0.6,0.4-1.2,0.9-1.6,1.4c-0.2,0.2-0.4,0.4-0.6,0.6C65,17.9,64.7,18,64.4,18c-0.3,0-0.6,0-0.9-0.1c-0.3-0.1-0.5-0.2-0.8-0.4
				c-0.5-0.4-0.8-0.9-0.8-1.5c-0.1-0.6,0.1-1.2,0.4-1.7c0.8-1.1,1.8-2,3-2.7C66.5,11.1,67.8,10.7,69.2,10.6L69.2,10.6z M21.3,14.1
				c2.3-2.2,5.4-3.5,8.6-3.5c1.5,0,3,0.3,4.4,1c1.4,0.7,2.5,1.7,3.4,2.9c0.4,0.5,0.5,1.1,0.4,1.7c-0.1,0.6-0.4,1.1-0.8,1.5
				c-0.2,0.2-0.5,0.3-0.8,0.4c-0.3,0.1-0.6,0.1-0.9,0.1c-0.3,0-0.6-0.1-0.8-0.3c-0.2-0.1-0.5-0.3-0.6-0.6c-0.4-0.6-1-1.1-1.6-1.4
				c-0.6-0.4-1.3-0.6-2.1-0.6c-2.1-0.2-4.5,0.7-6.2,2.3c-0.2,0.2-0.5,0.4-0.7,0.5C23.2,18,22.9,18,22.7,18c-0.3,0-0.6-0.1-0.8-0.2
				c-0.3-0.1-0.5-0.3-0.7-0.5c-0.4-0.4-0.6-1-0.6-1.6C20.6,15,20.8,14.5,21.3,14.1L21.3,14.1z"/>
			
				<linearGradient id="SVGID_6_" gradientUnits="userSpaceOnUse" x1="50.0013" y1="91.447" x2="50.0013" y2="83.9516" gradientTransform="matrix(1 0 0 -1 0 102)">
				<stop  offset="0" style="stop-color:#E78E0D"/>
				<stop  offset="1" style="stop-color:#CB6000"/>
			</linearGradient>
			<path class="st5" d="M69.2,10.6c0.3,0,0.6,0,1,0c3,0,6.2,1.3,8.6,3.5c0.4,0.4,0.7,1,0.7,1.6c0,0.6-0.2,1.2-0.6,1.6
				c-0.2,0.2-0.4,0.4-0.7,0.5c-0.3,0.1-0.5,0.2-0.8,0.2c-0.3,0-0.6,0-0.9-0.1c-0.3-0.1-0.5-0.3-0.7-0.5c-1.7-1.6-4.1-2.5-6.2-2.3
				c-0.7,0.1-1.4,0.3-2.1,0.6c-0.6,0.4-1.2,0.9-1.6,1.4c-0.2,0.2-0.4,0.4-0.6,0.6C65,17.9,64.7,18,64.4,18c-0.3,0-0.6,0-0.9-0.1
				c-0.3-0.1-0.5-0.2-0.8-0.4c-0.5-0.4-0.8-0.9-0.8-1.5c-0.1-0.6,0.1-1.2,0.4-1.7c0.8-1.1,1.8-2,3-2.7
				C66.5,11.1,67.8,10.7,69.2,10.6L69.2,10.6z M21.3,14.1c2.3-2.2,5.4-3.5,8.6-3.5c1.5,0,3,0.3,4.4,1c1.4,0.7,2.5,1.7,3.4,2.9
				c0.4,0.5,0.5,1.1,0.4,1.7c-0.1,0.6-0.4,1.1-0.8,1.5c-0.2,0.2-0.5,0.3-0.8,0.4c-0.3,0.1-0.6,0.1-0.9,0.1c-0.3,0-0.6-0.1-0.8-0.3
				c-0.2-0.1-0.5-0.3-0.6-0.6c-0.4-0.6-1-1.1-1.6-1.4c-0.6-0.4-1.3-0.6-2.1-0.6c-2.1-0.2-4.5,0.7-6.2,2.3c-0.2,0.2-0.5,0.4-0.7,0.5
				C23.2,18,22.9,18,22.7,18c-0.3,0-0.6-0.1-0.8-0.2c-0.3-0.1-0.5-0.3-0.7-0.5c-0.4-0.4-0.6-1-0.6-1.6C20.6,15,20.8,14.5,21.3,14.1
				L21.3,14.1z"/>
		</g>
	</g>
</g>
</svg>
